<?xml version="1.0" encoding="iso-8859-1"?>
<!-- Generator: Adobe Illustrator 19.0.0, SVG Export Plug-In . SVG Version: 6.00 Build 0)  -->
<svg version="1.1" id="Layer_1" xmlns="http://www.w3.org/2000/svg" xmlns:xlink="http://www.w3.org/1999/xlink" x="0px" y="0px"
	 viewBox="0 0 512 512" style="enable-background:new 0 0 512 512;" xml:space="preserve">
<g>
	<g>
		<g>
			<path d="M254.162,106.667c29.461,0,53.333-23.872,53.333-53.333C307.495,23.872,283.623,0,254.162,0
				c-29.461,0-53.333,23.872-53.333,53.333C200.829,82.795,224.701,106.667,254.162,106.667z"/>
			<path d="M405.33,128c29.461,0,53.333-23.872,53.333-53.333c0-29.44-23.872-53.333-53.333-53.333
				c-29.461,0-53.333,23.872-53.333,53.333C351.997,104.128,375.869,128,405.33,128z"/>
			<path d="M106.663,128c29.461,0,53.333-23.872,53.333-53.333c0-29.44-23.872-53.333-53.333-53.333
				c-29.461,0-53.333,23.893-53.333,53.333C53.33,104.128,77.202,128,106.663,128z"/>
			<path d="M498.237,305.387l-13.675-109.333c-3.328-26.624-26.069-46.72-52.907-46.72h-52.672c-5.035,0-10.155,0.832-15.637,2.56
				c-5.461,1.707-8.619,7.424-7.104,12.949c1.088,4.075,2.091,8.213,2.624,12.821l13.952,99.797
				c1.685,14.677-2.048,29.205-10.475,40.875c-1.728,2.411-2.389,5.419-1.813,8.32l12.203,61.824
				c1.856,9.408-0.576,19.072-6.677,26.496c-2.987,3.627-6.677,6.507-10.944,8.555c-3.648,1.749-5.995,5.397-6.08,9.429l-0.043,5.12
				l3.051,42.667c0.405,5.589,5.035,9.92,10.645,9.92h85.333c5.589,0,10.24-4.331,10.645-9.899l9.963-139.499
				c8.405-0.555,16.277-4.395,21.888-10.752C496.551,323.627,499.389,314.496,498.237,305.387z"/>
			<path d="M351.805,392.619l-15.467-78.315c10.645-6.933,16.96-19.861,15.381-33.621l-14.101-100.864
				C334.247,150.272,310.866,128,283.239,128h-54.485c-27.627,0-51.029,22.272-54.357,51.52l-14.165,101.397
				c-1.557,13.525,4.757,26.432,15.403,33.344l-15.467,78.315c-0.619,3.115,0.192,6.379,2.219,8.832
				c2.027,2.475,5.056,3.925,8.235,3.925h36.267l17.237,97.856c0.896,5.099,5.333,8.811,10.496,8.811h42.667
				c5.184,0,9.6-3.712,10.496-8.811l17.28-97.856h36.267c3.179,0,6.229-1.429,8.235-3.904
				C351.591,398.997,352.423,395.733,351.805,392.619z"/>
			<path d="M156.861,423.509c-4.267-2.048-7.936-4.907-10.901-8.512c-6.101-7.445-8.533-17.088-6.677-26.517l12.181-61.696
				c0.576-2.923-0.085-5.952-1.856-8.363c-8.427-11.541-12.181-25.707-10.581-39.616l14.293-102.464
				c0.085-0.853,0.32-1.643,0.512-2.453l0.661-2.987c0.128-0.747,0.192-1.515,0.171-2.283l-0.235-7.403
				c-0.149-4.715-3.392-8.789-7.957-9.984c-4.928-1.28-9.195-1.877-13.461-1.877H80.338c-26.837,0-49.6,20.075-52.907,46.72
				L13.757,305.387c-1.131,9.109,1.685,18.261,7.765,25.152c5.611,6.357,13.483,10.197,21.888,10.752l9.963,139.499
				c0.405,5.589,5.035,9.899,10.645,9.899h85.333c5.589,0,10.24-4.331,10.645-9.899l3.072-43.776l-0.128-4.203
				C162.77,428.821,160.445,425.216,156.861,423.509z"/>
		</g>
	</g>
</g>
<g>
</g>
<g>
</g>
<g>
</g>
<g>
</g>
<g>
</g>
<g>
</g>
<g>
</g>
<g>
</g>
<g>
</g>
<g>
</g>
<g>
</g>
<g>
</g>
<g>
</g>
<g>
</g>
<g>
</g>
</svg>
