<?xml version="1.0" encoding="iso-8859-1"?>
<!-- Generator: Adobe Illustrator 19.1.0, SVG Export Plug-In . SVG Version: 6.00 Build 0)  -->
<svg version="1.1" id="Capa_1" xmlns="http://www.w3.org/2000/svg" xmlns:xlink="http://www.w3.org/1999/xlink" x="0px" y="0px"
	 viewBox="0 0 439.801 439.801" style="enable-background:new 0 0 439.801 439.801;" xml:space="preserve">
<g>
	<path style="fill:#F4A04D;" d="M191.308,172.149l3.891-11.692l-12.016-34.721c-3.253,4.823-4.26,9.319-4.278,9.405
		c-0.009,0.04-0.018,0.08-0.029,0.12l-6.742,25.544L191.308,172.149z"/>
	<path style="fill:#A6D9FF;" d="M179.847,219.215h15.492v-7.949c-0.004-0.017-0.011-0.032-0.014-0.049l-5.132-26.169
		L179.847,219.215z"/>
	<path style="fill:#C69C6D;" d="M195.339,175.871l-0.265,0.797c-0.198,0.596-0.619,1.079-1.16,1.381l1.425,7.264V175.871z"/>
	<path style="fill:#B79870;" d="M216.09,55.658c0.805-1.714,1.227-4.054,1.22-6.768c-0.003-1.381,1.113-2.503,2.494-2.506
		c0.001,0,0.002,0,0.004,0c0,0,0.001,0,0.002,0c0,0,0.002,0,0.002,0c1.378,0,2.497,1.116,2.5,2.495
		c0.001,0.834,0.883,1.809,2.356,2.608c1.969,1.067,4.773,1.673,7.627,1.671c2.878-0.006,5.656-0.627,7.621-1.704
		c1.471-0.806,2.348-1.785,2.346-2.618c-0.003-1.38,1.114-2.502,2.495-2.505c0,0,0.001,0,0.002,0c0.001,0,0.002,0,0.003,0
		c0.001,0,0.002,0,0.002,0c1.378,0,2.497,1.116,2.5,2.495c0.005,2.715,0.438,5.053,1.249,6.763c0.782,1.646,1.901,2.685,3.422,3.195
		l-0.024-11.667c0.004-0.228,0.032-3.853-3.118-7.054c-3.315-3.369-8.924-5.075-16.537-5.052
		c-7.719,0.017-13.301,1.767-16.591,5.203c-3.075,3.211-3.015,6.854-3.013,6.89l0.026,11.765
		C214.199,58.352,215.315,57.308,216.09,55.658z"/>
	<path style="fill:#A6D9FF;" d="M165.367,175.761l2.561-11.638c-0.938-0.576-1.392-1.698-1.11-2.766l7.21-27.319
		c0.152-0.686,1.202-5.042,4.21-9.937c0,0-2.292-11.714-2.3-11.802c-0.035-0.363-0.584-5.263-4.319-10.481l-13.317,38.229
		L165.367,175.761z"/>
	<path style="fill:#D8B4A4;" d="M222.712,111.204c2.549,1.682,5.98,2.607,9.664,2.607c0.016,0,0.035,0.001,0.047,0
		c6.188-0.013,11.53-2.737,12.847-6.246l-0.179-0.061l0.003-0.01c-0.981-0.336-1.691-1.255-1.694-2.35l-0.011-4.995
		c-3.358,2.251-7.093,3.45-10.985,3.459c-0.002,0-0.003,0-0.005,0c-0.012,0-0.023,0-0.035,0c-3.937,0-7.659-1.253-10.965-3.468
		l0.011,5.052c0.002,1.095-0.704,2.017-1.684,2.357l0.003,0.01l-0.175,0.061C220.21,109.317,221.716,110.547,222.712,111.204z"/>
	<path style="fill:#D8B4A4;" d="M232.363,98.608c0.011,0,0.022-0.001,0.03,0c5.087-0.011,9.919-2.833,13.605-7.945
		c3.861-5.356,5.98-12.514,5.963-20.154l-0.014-6.587c-3.581-0.65-6.312-2.74-7.95-6.189c-0.349-0.735-0.628-1.544-0.873-2.387
		c-0.262,0.167-0.521,0.336-0.806,0.492c-2.714,1.487-6.27,2.31-10.013,2.318c-0.002,0-0.003,0-0.005,0c-0.017,0-0.033,0-0.049,0
		c-3.722,0-7.259-0.807-9.966-2.275c-0.285-0.155-0.545-0.322-0.808-0.488c-0.241,0.844-0.516,1.653-0.862,2.391
		c-1.623,3.455-4.346,5.557-7.924,6.222l0.015,6.587C212.74,86.049,221.556,98.608,232.363,98.608z M240.592,71.18
		c0.93-0.94,2.6-0.93,3.53,0c0.47,0.46,0.73,1.1,0.73,1.76c0,0.66-0.26,1.31-0.73,1.77c-0.46,0.47-1.11,0.73-1.77,0.73
		c-0.65,0-1.3-0.26-1.76-0.73c-0.47-0.46-0.73-1.11-0.73-1.77C239.862,72.29,240.122,71.64,240.592,71.18z M226.337,84.095
		c1.147,0,2.114,0.772,2.408,1.826c0.47,0.263,1.709,0.695,3.593,0.695c0.009,0,0.018,0,0.027,0c1.9-0.004,3.148-0.444,3.619-0.711
		c0.291-1.056,1.257-1.834,2.406-1.836c0.002,0,0.004,0,0.005,0c1.378,0,2.497,1.116,2.5,2.495c0.006,2.964-3.497,5.041-8.519,5.052
		c-0.012,0-0.025,0-0.037,0c-1.921,0-3.766-0.329-5.196-0.926c-2.979-1.245-3.304-3.274-3.306-4.089
		c-0.003-1.381,1.114-2.502,2.495-2.505C226.333,84.095,226.335,84.095,226.337,84.095z M219.812,72.99c0-0.66,0.27-1.31,0.74-1.77
		c0.93-0.93,2.61-0.93,3.53,0c0.47,0.47,0.73,1.11,0.73,1.77c0,0.65-0.26,1.3-0.73,1.76c-0.46,0.47-1.11,0.74-1.77,0.74
		c-0.65,0-1.3-0.27-1.76-0.73C220.082,74.29,219.812,73.65,219.812,72.99z"/>
	<rect x="114.764" y="223.024" style="fill:#4D4D4D;" width="5.997" height="3.901"/>
	<path style="fill:#C69C6D;" d="M123.235,93.64l7.018-13.682v-3.99c-3.457,1.85-7.584,2.73-12.483,2.732c-0.001,0-0.002,0-0.002,0
		c-0.001,0-0.003,0-0.004,0c-0.001,0-0.003,0-0.004,0c0,0-0.001,0-0.002,0c-4.899-0.002-9.027-0.882-12.483-2.732v3.99l7.018,13.682
		H123.235z"/>
	<path style="fill:#A6D9FF;" d="M128.238,94.841l12.424,4.986l-0.85-16.096l-4.742-2.281
		C135.039,81.535,128.238,94.841,128.238,94.841z"/>
	<path style="fill:#B7C16F;" d="M295.472,150.79c0.341-0.095,0.681-0.194,1.02-0.296c-2.182-5.633-3.527-15.729,2.894-21.107
		c1.058-0.887,2.635-0.747,3.521,0.312c0.887,1.058,0.747,2.635-0.312,3.521c-4.261,3.569-2.974,11.608-1.378,15.636
		c11.047-4.348,19.846-11.326,21.338-13.628c1.027-1.583,2.123-2.895,3.231-4.003c0.049-0.101,0.095-0.202,0.16-0.298
		c1.462-2.172,2.98-4.117,4.533-5.872v-4.243c-12.803-0.668-21.674-6.501-23.373-15.178l-1.986,0.477
		c-11.036,2.594-16.627,11.045-19.191,16.642c3.585,5.318,4.809,10.297,4.976,11.035L295.472,150.79z"/>
	<rect x="125.761" y="223.024" style="fill:#999999;" width="27.456" height="3.901"/>
	<polygon style="fill:#999999;" points="121.204,107.219 125.38,99.082 124.279,98.64 111.306,98.64 110.182,99.152 
		114.322,107.219 	"/>
	<path style="fill:#A6D9FF;" d="M125.274,110.24l5.984,84.851c0.044,0.624-0.147,1.241-0.536,1.73l-10.464,13.177v8.026h32.959
		v-78.157c0-0.058,0.124-0.777,0.139-0.822l14.447-41.473c-3.175-2.841-7.572-5.424-13.677-7.008
		c-0.157-0.041-9.176-4.361-9.176-4.361l0.911,17.271c0.045,0.853-0.348,1.669-1.042,2.165c-0.431,0.308-0.941,0.467-1.455,0.467
		c-0.314,0-0.63-0.059-0.931-0.18l-12.393-4.974L125.274,110.24z"/>
	<polygon style="fill:#999999;" points="117.763,205.1 126.202,194.473 120.402,112.219 115.124,112.219 109.324,194.473 	"/>
	<path style="fill:#FFFFFF;" d="M341.03,175.042c-1.665-0.63-4.472-0.957-7.186-1.273c-2.725-0.317-5.544-0.646-7.648-1.332
		c-1.23-0.366-7.151-2.329-9.078-6.231c-1.014,0.724-2.018,1.423-3.005,2.081c-0.028,0.018-0.055,0.038-0.084,0.055
		c-2.85,1.898-5.57,3.524-8.111,4.917c0.178,0.246,0.388,0.547,0.643,0.95c3.236,5.112,18.861,7.244,35.78,1.297
		C341.902,175.35,341.472,175.21,341.03,175.042z"/>
	<path style="fill:#E5CBBD;" d="M326.752,137.949c-1.867,2.878-8.501,8.159-16.971,12.493l4.235,11.84
		c5.185-3.685,10.728-8.289,16.303-14.033c1.942-2,4.402-3.307,6.781-4.57c4.254-2.259,6.659-3.7,6.614-7.057
		c-0.001-0.087,0.003-0.174,0.01-0.261c0-0.009,0.189-2.761-1.448-4.413c-1.074-1.085-2.826-1.552-5.219-1.395
		C336.854,130.571,331.152,131.164,326.752,137.949z"/>
	<path style="fill:#B7C16F;" d="M330.48,198.769v-15.279c-2.877,0.404-5.689,0.632-8.351,0.632c-6.873,0-12.802-1.348-16.639-4.027
		c-1.048,2.25-2.058,4.764-3.018,7.512l2.098,9.341C309.442,198.651,318.415,198.762,330.48,198.769z"/>
	<path style="fill:#FFFFFF;" d="M336.925,125.558c3.838-0.209,6.849,0.765,8.95,2.919c2.987,3.061,2.9,7.256,2.839,8.194
		c0.001,0.198-0.018,0.382-0.026,0.573l8.81,1.771c-3.804-7.907-2.3-17.276,3.48-23.615
		C354.882,115.304,345.601,117.289,336.925,125.558z"/>
	<path style="fill:#C69C6D;" d="M300.524,178.928c0.432-0.964,0.87-1.889,1.315-2.771c-0.045-0.062-0.326-0.45-0.41-0.574
		c-0.51,0.248-1.009,0.485-1.497,0.712L300.524,178.928z"/>
	<path style="fill:#D8B4A4;" d="M362.919,138.522c3.015,4.762,8.186,7.604,13.831,7.604c3.087,0,6.105-0.878,8.729-2.539
		c3.689-2.336,6.247-5.969,7.204-10.23c0.957-4.261,0.197-8.639-2.139-12.328c-3.015-4.762-8.185-7.605-13.831-7.605
		c-3.086,0-6.104,0.878-8.726,2.538C360.369,120.785,358.096,130.905,362.919,138.522z M382.642,132.24c0.93-0.93,2.61-0.93,3.54,0
		c0.46,0.47,0.73,1.11,0.73,1.77c0,0.66-0.27,1.31-0.73,1.77c-0.47,0.46-1.11,0.73-1.77,0.73c-0.66,0-1.3-0.27-1.77-0.73
		c-0.46-0.47-0.73-1.11-0.73-1.77C381.912,133.35,382.182,132.71,382.642,132.24z M374.422,119.251c0.92-0.93,2.6-0.93,3.53,0
		c0.47,0.47,0.74,1.11,0.74,1.769c0,0.66-0.27,1.3-0.74,1.77c-0.46,0.461-1.11,0.73-1.76,0.73c-0.66,0-1.31-0.269-1.77-0.73
		c-0.47-0.47-0.73-1.11-0.73-1.77C373.692,120.36,373.952,119.711,374.422,119.251z M368.833,125.945
		c1.167-0.738,2.712-0.391,3.449,0.775c0.577,0.911,0.491,2.053-0.13,2.861c0.065,0.461,0.339,1.368,1.022,2.447
		c0.682,1.077,1.385,1.712,1.773,1.968c1-0.217,2.064,0.195,2.642,1.106c0.739,1.167,0.393,2.711-0.774,3.45
		c-0.34,0.216-0.993,0.532-1.889,0.532c-0.792,0-1.775-0.248-2.901-1.031c-1.1-0.767-2.193-1.957-3.076-3.351
		C366.562,130.931,366.516,127.412,368.833,125.945z"/>
	<path style="fill:#B7C16F;" d="M305.238,152.589c-1.365,0.591-7.209,2.676-8.47,3.029l1.465,5.458
		c0.286,1.066-0.163,2.189-1.098,2.77l1.673,7.447c3.233-1.548,6.931-3.551,10.931-6.12L305.238,152.589z"/>
	<path style="fill:#E0BC4B;" d="M320.282,84.748c-6.032-5.449-10.005-14.661-10.005-25.087v-6.889h0.003
		c-0.001-1.178,0.83-2.227,2.029-2.456c0.266-0.052,18.171-3.659,18.171-15.186c0-1.381,1.119-2.5,2.5-2.5
		c1.381,0,2.5,1.119,2.5,2.5c0,11.555,17.99,15.151,18.172,15.186c1.197,0.23,2.027,1.28,2.026,2.456h0.004v6.889
		c0,10.426-3.972,19.639-10.004,25.087v1.777c8.413-0.44,14.374-3.149,17.722-8.085c7.715-11.369-0.022-31.186-0.101-31.385
		c-0.117-0.294-0.178-0.609-0.178-0.925c0-7.688-2.316-13.811-6.884-18.197c-8.778-8.428-23.014-7.954-23.156-7.946
		c-0.033,0.002-0.064-0.006-0.097-0.006c-0.035,0-0.067,0.007-0.103,0.006c-0.142-0.003-14.443-0.446-23.181,7.967
		c-4.554,4.384-6.862,10.499-6.862,18.176c0,0.316-0.06,0.631-0.178,0.925c-0.079,0.199-7.816,20.016-0.101,31.385
		c3.349,4.936,9.31,7.645,17.722,8.085V84.748z"/>
	<path style="fill:#B7C16F;" d="M366.512,111.035c0.904-0.494,1.838-0.922,2.797-1.278c-2.564-1.697-5.391-2.924-8.459-3.645
		l-1.997-0.479c-0.354,1.81-1.019,3.493-1.969,5.033C360.885,110.221,364.255,110.516,366.512,111.035z"/>
	<path style="fill:#E5CBBD;" d="M350.682,54.748c-4.099-1.09-13.265-4.208-17.702-11.093c-4.437,6.885-13.604,10.003-17.703,11.093
		v4.912c0,13.938,7.941,25.278,17.703,25.278c9.761,0,17.702-11.34,17.702-25.278V54.748z M322.532,63.2c-0.65,0-1.3-0.27-1.76-0.73
		c-0.47-0.47-0.74-1.11-0.74-1.77c0-0.66,0.27-1.3,0.74-1.77c0.93-0.93,2.6-0.93,3.53,0c0.47,0.47,0.73,1.11,0.73,1.77
		c0,0.66-0.26,1.3-0.73,1.77C323.842,62.93,323.192,63.2,322.532,63.2z M332.98,78.053c-5.44,0-9.24-2.193-9.24-5.333
		c0-1.381,1.119-2.5,2.5-2.5c1.189,0,2.185,0.831,2.438,1.943c0.493,0.32,1.96,0.89,4.303,0.89c2.343,0,3.81-0.57,4.303-0.89
		c0.253-1.112,1.248-1.943,2.438-1.943c1.381,0,2.5,1.119,2.5,2.5C342.22,75.86,338.421,78.053,332.98,78.053z M345.192,62.47
		c-0.46,0.46-1.11,0.73-1.77,0.73c-0.65,0-1.3-0.27-1.77-0.73c-0.46-0.47-0.73-1.11-0.73-1.77c0-0.66,0.27-1.3,0.73-1.77
		c0.94-0.93,2.61-0.93,3.54,0c0.47,0.47,0.73,1.11,0.73,1.77C345.922,61.36,345.662,62,345.192,62.47z"/>
	<path style="fill:#E5CBBD;" d="M321.51,163.793c0.263,1.23,3.479,3.059,6.178,3.873c1.687,0.549,4.253,0.848,6.734,1.137
		c3.016,0.352,6.135,0.715,8.378,1.564c4.998,1.892,9.64,3.072,13.932,3.717l1.559-12.324c-7.387,0.056-14.47-0.62-17.728-1.496
		c-5.866-1.578-12.561-2.883-17.793,1.653C321.906,162.666,321.424,163.385,321.51,163.793z"/>
	<path style="fill:#E5CBBD;" d="M332.98,115.876c11.623,0,19.728-4.514,20.998-11.413l-11.383-2.731
		c-1.124-0.27-1.917-1.275-1.917-2.431V88.143c-2.405,1.16-4.997,1.795-7.698,1.795c-2.701,0-5.293-0.635-7.698-1.795v11.157
		c0,1.156-0.793,2.161-1.917,2.431l-11.383,2.731C313.252,111.362,321.357,115.876,332.98,115.876z"/>
	<path style="fill:#FFFFFF;" d="M380.973,150.695c-1.384,0.281-2.797,0.431-4.224,0.431c-5.723,0-11.066-2.247-15.015-6.161
		l-14.517-2.918c-1.829,2.879-5.019,4.585-7.773,6.047c-2.131,1.131-4.144,2.2-5.538,3.636c-0.682,0.703-1.364,1.377-2.044,2.048
		c3.9,0.021,7.483,0.979,10,1.656c3.608,0.97,11.47,1.563,18.978,1.314c0.113-0.013,0.228-0.014,0.344-0.012
		c6.135-0.225,11.985-1.018,15.021-2.639C378.667,152.784,380.115,151.619,380.973,150.695z"/>
	<path style="fill:#B7C16F;" d="M365.191,192.888c-1.549-5.196-3.236-9.706-5.024-13.436c-0.41-0.031-7.277-0.925-10.214-1.64
		c-4.726,2.146-9.643,3.743-14.473,4.79v16.165C355.181,198.74,364.844,198.288,365.191,192.888z"/>
	<path style="fill:#5576A5;" d="M264.902,248.943h-64.558l0.366,169.658h22.084l7.466-149.957c0.069-1.379,1.237-2.44,2.622-2.373
		c1.29,0.065,2.291,1.1,2.359,2.363l0.013-0.001l8.11,149.876h22.083L264.902,248.943z"/>
	<path style="fill:#999999;" d="M203.298,423.643c-3.086,0.008-5.427,0.902-7.158,2.734c-2.315,2.451-3.04,6.067-3.259,8.424h29.821
		l-0.024-11.2L203.298,423.643z"/>
	<path style="fill:#C69C6D;" d="M182.28,237.164l1.572,7.278c0.015,0.068,0.609,3.06,2.63,4.717
		c1.405,1.152,3.223,1.588,5.025,1.355c1.459-0.189,2.792-0.841,3.835-1.85l-0.004-11.5H182.28z"/>
	<path style="fill:#999999;" d="M243.502,423.556l0.024,11.245h29.824c-0.228-2.4-0.975-6.107-3.342-8.591
		c-1.728-1.813-4.049-2.695-7.095-2.696L243.502,423.556z"/>
	<path style="fill:#4D4D4D;" d="M153.217,259.929c-1.049-0.759-1.958-1.713-2.672-2.838c-1.48-2.332-1.963-5.1-1.361-7.796
		l3.822-17.369H82.308v185.545h24.098l8.865-161.277c0.076-1.378,1.248-2.438,2.633-2.359c1.285,0.071,2.277,1.103,2.346,2.359
		h0.004l8.866,161.277h24.097V259.929z"/>
	<path style="fill:#333333;" d="M150.255,422.471h-21v12.33h32.428c-0.221-2.549-0.993-6.614-3.587-9.35
		C156.194,423.446,153.629,422.471,150.255,422.471z"/>
	<polygon style="fill:#A6D9FF;" points="195.339,224.215 178.333,224.215 177.579,226.706 180.645,232.164 195.339,232.164 	"/>
	<path style="fill:#F4A04D;" d="M286.063,135.031c-0.011-0.04-0.02-0.08-0.029-0.12c-0.077-0.346-1.102-4.739-4.287-9.422
		l-11.72,34.816l3.793,11.648l19.094-11.407L286.063,135.031z"/>
	<path style="fill:#D8B4A4;" d="M172.457,166.807l-4.771,21.678c-0.001,0.006-0.002,0.013-0.004,0.018l-13.616,61.874
		c-0.312,1.4-0.063,2.83,0.701,4.035c0.764,1.204,1.952,2.039,3.344,2.35c2.871,0.645,5.734-1.173,6.376-4.047
		c0.014-0.06,23.265-76.859,23.265-76.859L172.457,166.807z"/>
	<path style="fill:#F4A04D;" d="M265.849,114.592c-0.09-0.02-15.856-5.41-15.856-5.41c-1.999,5.581-8.982,9.61-17.559,9.629
		c-0.002,0-0.003,0-0.005,0c-0.017,0-0.035,0-0.052,0c-4.653,0-9.061-1.218-12.419-3.433c-2.537-1.673-4.27-3.785-5.121-6.121
		c0,0-15.746,5.46-15.835,5.479c-5.221,1.188-9.147,3.675-12.081,6.517l13.279,38.372c0.012,0.036,0.138,0.756,0.138,0.817v83.501
		h64.555v-83.65c0-0.056,0.118-0.758,0.131-0.797l12.951-38.474C275.034,118.214,271.096,115.762,265.849,114.592z"/>
	<path style="fill:#E5CBBD;" d="M335.48,415.152h10.906c9.767-53.693,11.221-91.974,11.436-101.833H335.48V415.152z"/>
	<path style="fill:#767743;" d="M305.807,202.454l10.441,46.489c1.265,5.551-2.227,11.105-7.786,12.372
		c-0.771,0.176-1.547,0.263-2.318,0.263c-1.924,0-3.814-0.54-5.483-1.59c-2.31-1.452-3.925-3.708-4.556-6.359l-1.717-5.583
		c-0.159,27.348,2.623,52.841,3.515,60.275h70.154c1.426-11.935,7.698-70.391-1.108-108.74c-2.62,2.108-6.112,2.767-7.704,3.062
		C353.153,203.769,318.531,204.297,305.807,202.454z"/>
	<path style="fill:#D8B4A4;" d="M303.322,255.754c1.227,0.729,2.641,1.004,4.028,0.686c2.872-0.654,4.675-3.523,4.021-6.394
		l-18.753-83.498l-15.256,9.114l23.547,76.579C300.928,252.3,301.679,254.778,303.322,255.754z"/>
	<path style="fill:#B7C16F;" d="M388.153,147.812c-0.305,0.193-0.619,0.368-0.931,0.545c0.003,0.529-0.059,1.119-0.235,1.769
		c-0.818,3.014-3.653,5.834-8.425,8.383c-3.403,1.818-9.137,2.747-15.209,3.093l-1.645,13.002c0.15-0.005,0.299,0.001,0.446,0.022
		c19.163,0.976,30.095-8.917,32.488-11.366c1.093-8.201-0.683-15.105-2.15-19.102C391.224,145.544,389.78,146.781,388.153,147.812z"
		/>
	<path style="fill:#998675;" d="M311.75,434.801h18.73v-14.648h-10.915C318.824,423.368,316.834,429.493,311.75,434.801z"/>
	<path style="fill:#998675;" d="M335.48,420.152v14.648h18.73c-5.084-5.308-7.074-11.433-7.815-14.648H335.48z"/>
	<path style="fill:#E5CBBD;" d="M319.574,415.152h10.906V313.32h-22.342C308.355,323.183,309.814,361.491,319.574,415.152z"/>
	<polygon style="fill:#A6D9FF;" points="39.01,232.164 54.881,232.164 59.345,224.215 38.321,224.215 	"/>
	<path style="fill:#C69C6D;" d="M38.152,242.899c-0.233,1.796,0.248,3.581,1.355,5.02c1.108,1.439,2.71,2.361,4.511,2.595
		c1.799,0.234,3.554-0.29,5.025-1.355c1.869-1.352,2.616-4.649,2.63-4.717l1.572-7.278H38.909L38.152,242.899z"/>
	<path style="fill:#A6D9FF;" d="M100.455,81.451l-4.791,2.305l-0.856,16.905l12.536-5.71
		C107.343,94.951,100.487,81.535,100.455,81.451z"/>
	<path style="fill:#C69C6D;" d="M117.763,73.7c9.557-0.001,16.734-3.402,20.382-19.305c-1.191,0.503-2.506,0.788-3.893,0.788h-5.277
		c-5.289,0-9.593-4.071-9.593-9.076v-3.123h-3.239v3.123c0,5.004-4.303,9.076-9.593,9.076h-5.277c-1.386,0-2.702-0.285-3.893-0.788
		C101.029,70.298,108.206,73.699,117.763,73.7z M111.286,60.816c1.175,0,2.161,0.811,2.428,1.903
		c0.486,0.299,1.873,0.819,4.049,0.819c2.176,0,3.562-0.52,4.049-0.82c0.268-1.092,1.254-1.903,2.428-1.903
		c1.381,0,2.5,1.119,2.5,2.5c0,3.075-3.692,5.223-8.978,5.223c-5.286,0-8.978-2.147-8.978-5.223
		C108.786,61.935,109.905,60.816,111.286,60.816z"/>
	<path style="fill:#A6D9FF;" d="M82.308,139.867v78.157h32.95v-8.037l-10.454-13.166c-0.389-0.49-0.579-1.107-0.536-1.73
		l5.983-84.852l-4.624-9.013l-12.488,5.689c-0.331,0.151-0.685,0.225-1.037,0.225c-0.493,0-0.984-0.146-1.405-0.433
		c-0.722-0.49-1.136-1.322-1.091-2.194l0.926-18.291c0,0-8.976,4.3-9.133,4.341c-6.104,1.584-10.501,4.167-13.677,7.008
		l14.446,41.473C82.185,139.09,82.308,139.81,82.308,139.867z"/>
	<path style="fill:#A6D9FF;" d="M59.55,112.56L38.632,219.215h22.931l15.661-79.167l-13.316-38.229
		C60.171,107.038,59.566,112.48,59.55,112.56z"/>
	<path style="fill:#D8D5D4;" d="M124.383,46.108c0,2.248,2.061,4.076,4.593,4.076h5.277c2.533,0,4.594-1.828,4.594-4.076v-3.123
		h-14.464V46.108z M129.842,44.82c0.94-0.93,2.61-0.93,3.54,0c0.47,0.46,0.73,1.11,0.73,1.76c0,0.66-0.26,1.3-0.73,1.77
		c-0.46,0.47-1.11,0.73-1.77,0.73c-0.66,0-1.3-0.26-1.77-0.73c-0.46-0.46-0.73-1.11-0.73-1.77
		C129.112,45.93,129.382,45.28,129.842,44.82z"/>
	<path style="fill:#C69C6D;" d="M134.705,22.716c-0.069-0.065-0.128-0.11-0.171-0.139c-0.347,0.089-1.116,0.504-1.744,0.844
		c-2.599,1.405-6.948,3.755-15.022,3.757c0,0-0.001,0-0.002,0c-0.001,0-0.003,0-0.004,0c-0.001,0-0.003,0-0.004,0
		c0,0-0.002,0-0.002,0c-8.074-0.002-12.422-2.352-15.021-3.757c-0.626-0.338-1.392-0.752-1.741-0.843
		c-0.051,0.037-0.13,0.102-0.237,0.209c-0.838,1.208-1.574,8.189-1.062,15.197h36.135C136.343,30.977,135.601,23.99,134.705,22.716z
		"/>
	<path style="fill:#D8D5D4;" d="M101.273,50.184h5.277c2.532,0,4.593-1.828,4.593-4.076v-3.123H96.679v3.123
		C96.679,48.355,98.74,50.184,101.273,50.184z M102.142,44.82c0.93-0.94,2.61-0.94,3.54,0c0.46,0.46,0.73,1.1,0.73,1.76
		c0,0.66-0.27,1.31-0.73,1.77c-0.47,0.47-1.11,0.73-1.77,0.73c-0.66,0-1.3-0.26-1.77-0.73c-0.46-0.47-0.73-1.11-0.73-1.77
		C101.412,45.93,101.682,45.28,102.142,44.82z"/>
	<path style="fill:#754C24;" d="M97.222,19.252c2.917-2.918,5.675-1.426,7.891-0.23c2.464,1.331,5.837,3.155,12.65,3.156
		c6.813-0.001,10.187-1.825,12.65-3.156c2.216-1.197,4.973-2.688,7.89,0.23c2.723,2.723,2.915,12.556,2.53,18.732h0.513
		c1.381,0,2.5,1.119,2.5,2.5v4.713c1.673-3.541,2.996-10.499,0.83-24.028c-1.331-8.315-2.589-16.169-26.914-16.17
		C93.438,5.001,92.181,12.855,90.85,21.17c-2.166,13.527-0.843,20.486,0.829,24.027v-4.712c0-1.381,1.119-2.5,2.5-2.5h0.513
		C94.307,31.808,94.501,21.974,97.222,19.252z"/>
	<path style="fill:#333333;" d="M77.416,425.467c-2.564,2.717-3.339,6.783-3.565,9.334h32.422v-12.33h-21
		C81.889,422.471,79.319,423.451,77.416,425.467z"/>
	<rect x="82.308" y="223.024" style="fill:#999999;" width="27.456" height="3.901"/>
	<path style="fill:#1C1B1A;" d="M223.837,86.6c0.002,0.815,0.327,2.845,3.306,4.089c1.43,0.598,3.274,0.926,5.196,0.926
		c0.012,0,0.025,0,0.037,0c5.022-0.011,8.525-2.088,8.519-5.052c-0.003-1.379-1.122-2.495-2.5-2.495c-0.001,0-0.003,0-0.005,0
		c-1.149,0.002-2.115,0.78-2.406,1.836c-0.471,0.267-1.718,0.706-3.619,0.711c-0.009,0-0.018,0-0.027,0
		c-1.884,0-3.123-0.432-3.593-0.695c-0.295-1.054-1.261-1.826-2.408-1.826c-0.002,0-0.003,0-0.005,0
		C224.951,84.098,223.834,85.219,223.837,86.6z"/>
	<path style="fill:#1C1B1A;" d="M224.082,74.751c0.47-0.461,0.73-1.11,0.73-1.76c0-0.66-0.26-1.3-0.73-1.77
		c-0.92-0.93-2.6-0.93-3.53,0c-0.47,0.46-0.74,1.11-0.74,1.77c0,0.66,0.27,1.3,0.74,1.77c0.46,0.46,1.11,0.73,1.76,0.73
		C222.972,75.49,223.622,75.22,224.082,74.751z"/>
	<path style="fill:#1C1B1A;" d="M242.352,75.44c0.66,0,1.31-0.26,1.77-0.73c0.47-0.46,0.73-1.11,0.73-1.77
		c0-0.66-0.26-1.3-0.73-1.76c-0.93-0.93-2.6-0.94-3.53,0c-0.47,0.46-0.73,1.11-0.73,1.76c0,0.66,0.26,1.31,0.73,1.77
		C241.052,75.18,241.702,75.44,242.352,75.44z"/>
	<path style="fill:#1C1B1A;" d="M117.763,68.539c5.286,0,8.978-2.147,8.978-5.223c0-1.381-1.119-2.5-2.5-2.5
		c-1.175,0-2.161,0.811-2.428,1.903c-0.487,0.3-1.873,0.82-4.049,0.82c-2.176,0-3.563-0.52-4.049-0.819
		c-0.268-1.093-1.253-1.903-2.428-1.903c-1.381,0-2.5,1.119-2.5,2.5C108.786,66.391,112.478,68.539,117.763,68.539z"/>
	<path style="fill:#1C1B1A;" d="M103.912,49.08c0.66,0,1.3-0.26,1.77-0.73c0.46-0.46,0.73-1.11,0.73-1.77c0-0.66-0.27-1.3-0.73-1.76
		c-0.93-0.94-2.61-0.94-3.54,0c-0.46,0.46-0.73,1.11-0.73,1.76c0,0.66,0.27,1.3,0.73,1.77
		C102.612,48.82,103.252,49.08,103.912,49.08z"/>
	<path style="fill:#1C1B1A;" d="M131.612,49.08c0.66,0,1.31-0.26,1.77-0.73c0.47-0.47,0.73-1.11,0.73-1.77
		c0-0.65-0.26-1.3-0.73-1.76c-0.93-0.93-2.6-0.93-3.54,0c-0.46,0.46-0.73,1.11-0.73,1.76c0,0.66,0.27,1.31,0.73,1.77
		C130.312,48.82,130.952,49.08,131.612,49.08z"/>
	<path style="fill:#1C1B1A;" d="M339.72,70.22c-1.189,0-2.185,0.831-2.438,1.943c-0.493,0.32-1.96,0.89-4.303,0.89
		c-2.343,0-3.81-0.57-4.303-0.89c-0.253-1.112-1.249-1.943-2.438-1.943c-1.381,0-2.5,1.119-2.5,2.5c0,3.14,3.8,5.333,9.24,5.333
		c5.44,0,9.24-2.193,9.24-5.333C342.22,71.339,341.101,70.22,339.72,70.22z"/>
	<path style="fill:#1C1B1A;" d="M341.652,58.93c-0.46,0.47-0.73,1.11-0.73,1.77c0,0.66,0.27,1.3,0.73,1.77
		c0.47,0.46,1.12,0.73,1.77,0.73c0.66,0,1.31-0.27,1.77-0.73c0.47-0.47,0.73-1.11,0.73-1.77c0-0.66-0.26-1.3-0.73-1.77
		C344.262,58,342.592,58,341.652,58.93z"/>
	<path style="fill:#1C1B1A;" d="M325.032,60.7c0-0.66-0.26-1.3-0.73-1.77c-0.93-0.93-2.6-0.93-3.53,0
		c-0.47,0.47-0.74,1.11-0.74,1.77c0,0.66,0.27,1.3,0.74,1.77c0.46,0.46,1.11,0.73,1.76,0.73c0.66,0,1.31-0.27,1.77-0.73
		C324.772,62,325.032,61.36,325.032,60.7z"/>
	<path style="fill:#1C1B1A;" d="M368.949,134.703c0.883,1.394,1.975,2.584,3.076,3.351c1.126,0.784,2.108,1.031,2.901,1.031
		c0.896,0,1.549-0.316,1.889-0.532c1.167-0.739,1.513-2.283,0.774-3.45c-0.577-0.911-1.642-1.323-2.642-1.106
		c-0.389-0.256-1.091-0.891-1.773-1.968c-0.683-1.08-0.957-1.986-1.022-2.447c0.621-0.808,0.707-1.95,0.13-2.861
		c-0.737-1.167-2.283-1.514-3.449-0.775C366.516,127.412,366.562,130.931,368.949,134.703z"/>
	<path style="fill:#1C1B1A;" d="M376.192,123.52c0.65,0,1.3-0.269,1.76-0.73c0.47-0.47,0.74-1.11,0.74-1.77
		c0-0.66-0.27-1.3-0.74-1.769c-0.93-0.93-2.61-0.93-3.53,0c-0.47,0.46-0.73,1.11-0.73,1.769c0,0.66,0.26,1.3,0.73,1.77
		C374.882,123.251,375.532,123.52,376.192,123.52z"/>
	<path style="fill:#1C1B1A;" d="M384.412,136.51c0.66,0,1.3-0.27,1.77-0.73c0.46-0.46,0.73-1.11,0.73-1.77
		c0-0.66-0.27-1.3-0.73-1.77c-0.93-0.93-2.61-0.93-3.54,0c-0.46,0.47-0.73,1.11-0.73,1.77c0,0.66,0.27,1.3,0.73,1.77
		C383.112,136.24,383.752,136.51,384.412,136.51z"/>
	<path style="fill:#1C1B1A;" d="M394.391,106.535c-1.167,0.739-1.513,2.283-0.775,3.45c0.739,1.167,2.284,1.515,3.45,0.775
		c1.409-0.895,3.282-0.473,4.174,0.936c0.892,1.41,0.472,3.283-0.938,4.175l-5.109,3.235c-0.145-0.249-0.271-0.506-0.426-0.75
		c-3.937-6.218-10.687-9.93-18.056-9.93c-0.318,0-0.633,0.02-0.95,0.034c-3.947-3.556-8.566-5.991-13.756-7.211l-16.328-3.918
		v-5.797c10.202-0.478,17.555-3.932,21.868-10.298c8.576-12.658,1.817-32.253,0.573-35.575c-0.096-8.885-2.927-16.061-8.419-21.333
		c-9.997-9.599-25.225-9.384-26.722-9.339c-1.522-0.043-16.733-0.25-26.719,9.339c-5.491,5.273-8.322,12.448-8.418,21.333
		c-1.245,3.322-8.003,22.917,0.573,35.575c4.313,6.366,11.667,9.82,21.868,10.298v5.797l-16.316,3.916
		c-11.647,2.738-18.107,10.869-21.482,17.209c-3.568-3.758-8.536-7.148-15.409-8.711l-18.677-6.392l-0.017-7.654
		c0.578-0.666,1.138-1.367,1.674-2.111c4.473-6.204,6.926-14.404,6.907-23.088l-0.019-8.83c0-0.004,0.001-0.008,0.001-0.012
		s-0.001-0.008-0.001-0.012l-0.032-14.441c0.008-0.233,0.158-5.772-4.443-10.536c-4.268-4.418-11.913-6.657-20.215-6.657
		s-15.93,2.289-20.197,6.745c-4.58,4.783-4.407,10.32-4.4,10.456l0.051,23.392c0.022,10.036,3.394,19.027,8.684,25.083l0.017,7.732
		l-18.65,6.473c-6.928,1.606-11.91,5.065-15.468,8.879l-1.385-7.062c-0.217-1.97-2.813-19.972-25.282-25.923l-20.369-9.797v-3.864
		c3.953-4.189,6.631-10.478,8.307-19.17c3.38-1.86,9.891-8.606,6.054-32.577C147.894,9.642,144.164,0.002,117.768,0
		c0,0-0.001,0-0.001,0c-0.001,0-0.003,0-0.004,0c-0.001,0-0.003,0-0.004,0c0,0-0.001,0-0.001,0
		C91.361,0.002,87.631,9.642,85.913,20.38c-3.837,23.97,2.674,30.715,6.053,32.576c1.676,8.692,4.354,14.981,8.307,19.17v3.864
		l-20.368,9.797C57.436,91.738,54.84,109.74,54.622,111.71c0,0-21.521,110.194-21.519,110.221l1.1,12.677l-1.009,7.642
		c-0.406,3.126,0.429,6.222,2.351,8.719c1.923,2.498,4.703,4.097,7.828,4.503c0.518,0.067,1.034,0.101,1.547,0.101
		c2.587,0,5.089-0.847,7.173-2.452c2.468-1.9,4.059-4.638,4.488-7.719l2.126-9.842l7.088-12.62
		c0.028-0.049,11.512-57.552,11.512-57.552v55.137v198.8c-1.306,0.706-2.486,1.607-3.528,2.711
		c-5.49,5.816-5.026,15.021-5.003,15.41c0.076,1.323,1.171,2.356,2.496,2.356h37.5c1.381,0,2.5-1.119,2.5-2.5v-17.264l6.491-118.083
		l6.492,118.083v17.264c0,1.381,1.119,2.5,2.5,2.5h37.5c1.325,0,2.42-1.033,2.496-2.356c0.023-0.389,0.487-9.594-5.003-15.41
		c-1.043-1.105-2.223-2.006-3.529-2.711V261.833c0.36,0.038,0.72,0.06,1.078,0.06c1.939,0,3.843-0.549,5.521-1.614
		c2.304-1.462,3.909-3.725,4.528-6.378l6.226-20.561l1.248,2.22l2.126,9.841c0.429,3.081,2.02,5.819,4.488,7.719
		c2.084,1.605,4.586,2.452,7.173,2.452c0.513,0,1.03-0.033,1.547-0.101c1.118-0.145,2.194-0.447,3.203-0.887l0.358,165.873
		c-1.193,0.66-2.275,1.492-3.232,2.51c-5.149,5.478-4.695,14.117-4.673,14.482c0.079,1.32,1.173,2.351,2.496,2.351h34.903
		c0.664,0,1.301-0.264,1.77-0.734c0.469-0.47,0.732-1.107,0.73-1.771l-0.035-16.137l5.188-104.192l5.635,104.17l0.035,16.17
		c0.003,1.378,1.122,2.495,2.5,2.495h34.904c1.328,0,2.423-1.038,2.496-2.363c0.021-0.371,0.439-9.15-4.782-14.654
		c-0.95-1.001-2.02-1.818-3.197-2.468l-0.558-173.886v-70.384l0.142,0.436c0.235,0.723,0.787,1.3,1.499,1.567
		c0.44,0.165,0.909,0.186,1.359,0.096l16.893,54.941c-1.877,37.893,3.375,77.667,3.429,78.067c0.167,1.241,1.226,2.167,2.478,2.167
		h7.442c0.217,10.015,1.702,49.387,11.82,104.376c-0.32,1.921-2.382,11.839-11.57,17.473c-0.955,0.586-1.403,1.733-1.1,2.811
		c0.304,1.077,1.287,1.821,2.406,1.821h56.572c1.119,0,2.102-0.744,2.406-1.821c0.304-1.078-0.145-2.225-1.1-2.811
		c-9.186-5.633-11.25-15.549-11.57-17.473c10.118-54.989,11.603-94.361,11.82-104.376h7.442c1.252,0,2.311-0.927,2.478-2.167
		c0.415-3.097,10.024-76.327-2.634-119.275c-1.353-4.592-2.819-8.698-4.374-12.27c21.475-0.492,33.006-13.405,33.158-13.579
		c0.309-0.356,0.51-0.792,0.582-1.258c1.897-12.355-2.017-22.169-3.622-25.54c0.741-1.506,1.331-3.098,1.708-4.777
		c0.808-3.6,0.664-7.261-0.355-10.704l5.771-3.655c3.738-2.367,4.854-7.334,2.487-11.075
		C403.097,105.283,398.129,104.168,394.391,106.535z M376.712,113.425c5.646,0,10.816,2.843,13.831,7.605
		c2.337,3.689,3.096,8.067,2.139,12.328c-0.957,4.261-3.515,7.894-7.204,10.23c-2.623,1.661-5.641,2.539-8.729,2.539
		c-5.645,0-10.815-2.843-13.831-7.604c-4.822-7.617-2.549-17.737,5.067-22.559C370.608,114.302,373.625,113.425,376.712,113.425z
		 M298.809,171.292l-1.673-7.447c0.935-0.58,1.384-1.704,1.098-2.77l-1.465-5.458c1.261-0.353,7.105-2.438,8.47-3.029l4.501,12.583
		C305.739,167.741,302.041,169.744,298.809,171.292z M301.839,176.156c-0.445,0.883-0.884,1.808-1.315,2.771l-0.592-2.634
		c0.488-0.227,0.987-0.464,1.497-0.712C301.513,175.706,301.794,176.094,301.839,176.156z M305.49,180.094
		c3.837,2.679,9.766,4.027,16.639,4.027c2.662,0,5.474-0.227,8.351-0.632v15.279c-12.065-0.006-21.038-0.118-25.91-1.822
		l-2.098-9.341C303.433,184.857,304.443,182.344,305.49,180.094z M306.559,174.21c-0.255-0.402-0.465-0.704-0.643-0.95
		c2.542-1.393,5.261-3.019,8.111-4.917c0.029-0.017,0.056-0.037,0.084-0.055c0.986-0.659,1.991-1.357,3.005-2.081
		c1.927,3.902,7.848,5.865,9.078,6.231c2.105,0.686,4.923,1.015,7.648,1.332c2.715,0.316,5.522,0.643,7.186,1.273
		c0.442,0.168,0.871,0.307,1.309,0.464C325.421,181.454,309.796,179.321,306.559,174.21z M357.498,139.014l-8.81-1.771
		c0.009-0.191,0.027-0.375,0.026-0.573c0.061-0.938,0.148-5.133-2.839-8.194c-2.101-2.154-5.112-3.128-8.95-2.919
		c8.676-8.269,17.957-10.254,24.053-10.159C355.198,121.738,353.695,131.107,357.498,139.014z M337.057,130.552
		c2.393-0.156,4.145,0.31,5.219,1.395c1.638,1.653,1.449,4.404,1.448,4.413c-0.008,0.087-0.011,0.174-0.01,0.261
		c0.045,3.356-2.359,4.798-6.614,7.057c-2.379,1.263-4.839,2.569-6.781,4.57c-5.575,5.744-11.119,10.348-16.303,14.033l-4.235-11.84
		c8.47-4.334,15.104-9.614,16.971-12.493C331.152,131.164,336.854,130.571,337.057,130.552z M340.564,160.264
		c3.257,0.876,10.34,1.552,17.728,1.496l-1.559,12.324c-4.291-0.645-8.934-1.825-13.932-3.717c-2.243-0.849-5.362-1.212-8.378-1.564
		c-2.481-0.288-5.047-0.587-6.734-1.137c-2.699-0.814-5.914-2.643-6.178-3.873c-0.087-0.408,0.396-1.127,1.26-1.876
		C328.003,157.381,334.698,158.686,340.564,160.264z M335.48,182.602c4.83-1.047,9.747-2.643,14.473-4.79
		c2.937,0.714,9.804,1.608,10.214,1.64c1.788,3.73,3.475,8.24,5.024,13.436c-0.347,5.4-10.01,5.852-29.711,5.879V182.602z
		 M360.841,156.75c-7.508,0.249-15.37-0.344-18.978-1.314c-2.517-0.677-6.1-1.635-10-1.656c0.681-0.671,1.362-1.346,2.044-2.048
		c1.393-1.436,3.407-2.504,5.538-3.636c2.754-1.462,5.944-3.168,7.773-6.047l14.517,2.918c3.948,3.914,9.292,6.161,15.015,6.161
		c1.426,0,2.839-0.15,4.224-0.431c-0.857,0.923-2.306,2.089-4.767,3.404c-3.036,1.622-8.886,2.415-15.021,2.639
		C361.068,156.736,360.953,156.737,360.841,156.75z M358.853,105.633l1.997,0.479c3.068,0.721,5.896,1.948,8.459,3.645
		c-0.959,0.356-1.893,0.784-2.797,1.278c-2.257-0.519-5.628-0.814-9.629-0.369C357.834,109.126,358.499,107.442,358.853,105.633z
		 M332.98,84.938c-9.762,0-17.703-11.34-17.703-25.278v-4.912c4.099-1.09,13.266-4.208,17.703-11.093
		c4.437,6.885,13.603,10.003,17.702,11.093v4.912C350.682,73.599,342.741,84.938,332.98,84.938z M302.56,78.439
		c-7.715-11.369,0.022-31.186,0.101-31.385c0.117-0.294,0.178-0.609,0.178-0.925c0-7.677,2.309-13.792,6.862-18.176
		c8.738-8.413,23.04-7.97,23.181-7.967c0.035,0.002,0.068-0.006,0.103-0.006c0.033,0,0.064,0.007,0.097,0.006
		c0.142-0.007,14.378-0.481,23.156,7.946c4.568,4.386,6.884,10.509,6.884,18.197c0,0.316,0.061,0.631,0.178,0.925
		c0.079,0.199,7.816,20.016,0.101,31.385c-3.349,4.936-9.309,7.645-17.722,8.085v-1.777c6.032-5.448,10.004-14.661,10.004-25.087
		v-6.889h-0.004c0.001-1.176-0.829-2.225-2.026-2.456c-0.182-0.035-18.172-3.631-18.172-15.186c0-1.381-1.119-2.5-2.5-2.5
		c-1.381,0-2.5,1.119-2.5,2.5c0,11.527-17.906,15.134-18.171,15.186c-1.199,0.229-2.03,1.278-2.029,2.456h-0.003v6.889
		c0,10.427,3.973,19.639,10.005,25.087v1.777C311.869,86.084,305.908,83.375,302.56,78.439z M323.365,101.732
		c1.124-0.27,1.917-1.275,1.917-2.431V88.144c2.405,1.16,4.997,1.795,7.698,1.795c2.702,0,5.293-0.636,7.698-1.795v11.158
		c0,1.156,0.792,2.161,1.917,2.431l11.383,2.731c-1.27,6.899-9.375,11.413-20.998,11.413c-11.623,0-19.728-4.514-20.998-11.413
		L323.365,101.732z M305.121,106.11l1.986-0.477c1.699,8.677,10.57,14.51,23.373,15.178v4.243c-1.552,1.755-3.07,3.7-4.533,5.872
		c-0.064,0.096-0.11,0.197-0.16,0.298c-1.109,1.108-2.204,2.421-3.231,4.003c-1.493,2.302-10.291,9.28-21.338,13.628
		c-1.596-4.028-2.883-12.067,1.378-15.636c1.059-0.886,1.198-2.463,0.312-3.521c-0.887-1.059-2.463-1.199-3.521-0.312
		c-6.421,5.378-5.075,15.475-2.894,21.107c-0.339,0.102-0.679,0.201-1.02,0.296l-4.566-17.004
		c-0.167-0.737-1.391-5.716-4.976-11.035C288.494,117.155,294.086,108.704,305.121,106.11z M212.654,47.104
		c-0.001-0.036-0.062-3.679,3.013-6.89c3.29-3.436,8.872-5.186,16.591-5.203c7.613-0.023,13.221,1.683,16.537,5.052
		c3.15,3.201,3.122,6.826,3.118,7.054l0.024,11.667c-1.521-0.51-2.641-1.549-3.422-3.195c-0.812-1.71-1.244-4.048-1.249-6.763
		c-0.003-1.379-1.122-2.495-2.5-2.495c0,0-0.001,0-0.002,0c-0.001,0-0.002,0-0.003,0c-0.001,0-0.002,0-0.002,0
		c-1.381,0.003-2.498,1.125-2.495,2.505c0.002,0.833-0.875,1.812-2.346,2.618c-1.965,1.076-4.743,1.697-7.621,1.704
		c-2.854,0.002-5.658-0.604-7.627-1.671c-1.474-0.799-2.355-1.774-2.356-2.608c-0.003-1.379-1.122-2.495-2.5-2.495
		c0,0-0.002,0-0.002,0c-0.001,0-0.002,0-0.002,0c-0.002,0-0.003,0-0.004,0c-1.38,0.003-2.497,1.125-2.494,2.506
		c0.007,2.714-0.415,5.055-1.22,6.768c-0.775,1.65-1.891,2.694-3.41,3.21L212.654,47.104z M212.706,70.593l-0.015-6.587
		c3.578-0.665,6.301-2.767,7.924-6.222c0.346-0.737,0.622-1.547,0.862-2.391c0.262,0.166,0.522,0.333,0.808,0.488
		c2.707,1.468,6.244,2.275,9.966,2.275c0.016,0,0.033,0,0.049,0c0.002,0,0.003,0,0.005,0c3.743-0.008,7.298-0.832,10.013-2.318
		c0.285-0.156,0.544-0.325,0.806-0.492c0.245,0.843,0.523,1.651,0.873,2.387c1.638,3.448,4.369,5.538,7.95,6.189l0.014,6.587
		c0.017,7.64-2.102,14.797-5.963,20.154c-3.686,5.113-8.518,7.935-13.605,7.945c-0.008-0.001-0.02,0-0.03,0
		C221.556,98.608,212.74,86.049,212.706,70.593z M219.727,107.549c0.98-0.34,1.686-1.262,1.684-2.357l-0.011-5.052
		c3.306,2.215,7.028,3.468,10.965,3.468c0.011,0,0.023,0,0.035,0c0.002,0,0.003,0,0.005,0c3.893-0.008,7.627-1.208,10.985-3.459
		l0.011,4.995c0.002,1.095,0.713,2.014,1.694,2.35l-0.003,0.01l0.179,0.061c-1.316,3.508-6.659,6.232-12.847,6.246
		c-0.012,0.001-0.031,0-0.047,0c-3.684,0-7.115-0.925-9.664-2.607c-0.997-0.657-2.503-1.887-3.157-3.585l0.175-0.061
		L219.727,107.549z M178.905,135.142c0.018-0.086,1.025-4.582,4.278-9.405l12.016,34.721l-3.891,11.692l-19.174-11.343l6.742-25.544
		C178.887,135.222,178.897,135.182,178.905,135.142z M193.914,178.049c0.541-0.302,0.961-0.785,1.16-1.381l0.265-0.797v9.442
		L193.914,178.049z M195.339,211.267v7.949h-15.492l10.345-34.167l5.132,26.169C195.328,211.235,195.335,211.25,195.339,211.267z
		 M175.938,112.299c0.008,0.087,2.3,11.802,2.3,11.802c-3.008,4.895-4.058,9.251-4.21,9.937l-7.21,27.319
		c-0.282,1.068,0.172,2.189,1.11,2.766l-2.561,11.638l-7.065-35.713l13.317-38.229C175.355,107.036,175.903,111.937,175.938,112.299
		z M162.682,187.958l-4.465,20.289v-42.86L162.682,187.958z M143.365,106.106c0.514,0,1.024-0.159,1.455-0.467
		c0.694-0.497,1.087-1.312,1.042-2.165l-0.911-17.271c0,0,9.02,4.321,9.176,4.361c6.105,1.584,10.502,4.167,13.677,7.008
		l-14.447,41.473c-0.016,0.045-0.139,0.765-0.139,0.822v78.157h-32.959v-8.026l10.464-13.177c0.389-0.49,0.58-1.107,0.536-1.73
		l-5.984-84.851l4.766-9.288l12.393,4.974C142.735,106.047,143.05,106.106,143.365,106.106z M153.217,223.024v3.901h-27.456v-3.901
		H153.217z M111.306,98.64h12.973l1.101,0.442l-4.176,8.137h-6.882l-4.14-8.067L111.306,98.64z M105.273,79.959v-3.99
		c3.456,1.85,7.584,2.73,12.483,2.732c0.001,0,0.002,0,0.002,0c0.002,0,0.003,0,0.004,0c0.001,0,0.003,0,0.004,0
		c0.001,0,0.001,0,0.002,0c4.899-0.002,9.027-0.882,12.483-2.732v3.99l-7.018,13.682h-10.943L105.273,79.959z M115.124,112.219
		h5.277l5.801,82.254l-8.439,10.627l-8.438-10.627L115.124,112.219z M120.761,223.024v3.901h-5.997v-3.901H120.761z M139.813,83.732
		l0.85,16.096l-12.424-4.986c0,0,6.8-13.306,6.833-13.39L139.813,83.732z M138.846,46.108c0,2.248-2.061,4.076-4.594,4.076h-5.277
		c-2.532,0-4.593-1.828-4.593-4.076v-3.123h14.464V46.108z M99.696,37.984c-0.512-7.008,0.224-13.989,1.062-15.197
		c0.107-0.107,0.187-0.172,0.237-0.209c0.349,0.09,1.115,0.504,1.741,0.843c2.599,1.405,6.947,3.755,15.021,3.757
		c0,0,0.002,0,0.002,0c0.002,0,0.003,0,0.004,0c0.001,0,0.003,0,0.004,0c0.001,0,0.002,0,0.002,0
		c8.074-0.002,12.423-2.352,15.022-3.757c0.628-0.339,1.396-0.755,1.744-0.844c0.043,0.029,0.102,0.074,0.171,0.139
		c0.896,1.274,1.638,8.26,1.126,15.268H99.696z M94.179,37.984c-1.381,0-2.5,1.119-2.5,2.5v4.712
		c-1.672-3.541-2.995-10.5-0.829-24.027C92.181,12.855,93.438,5.001,117.763,5c24.324,0.001,25.582,7.855,26.914,16.17
		c2.165,13.529,0.843,20.487-0.83,24.028v-4.713c0-1.381-1.119-2.5-2.5-2.5h-0.513c0.385-6.177,0.193-16.01-2.53-18.732
		c-2.917-2.918-5.674-1.427-7.89-0.23c-2.463,1.331-5.837,3.155-12.65,3.156c-6.812-0.001-10.186-1.825-12.65-3.156
		c-2.216-1.197-4.974-2.688-7.891,0.23c-2.722,2.722-2.915,12.556-2.53,18.732H94.179z M96.679,42.984h14.464v3.123
		c0,2.248-2.061,4.076-4.593,4.076h-5.277c-2.533,0-4.594-1.828-4.594-4.076V42.984z M97.381,54.396
		c1.191,0.503,2.506,0.788,3.893,0.788h5.277c5.29,0,9.593-4.071,9.593-9.076v-3.123h3.239v3.123c0,5.004,4.303,9.076,9.593,9.076
		h5.277c1.386,0,2.702-0.285,3.893-0.788c-3.648,15.902-10.826,19.304-20.382,19.305C108.206,73.699,101.029,70.298,97.381,54.396z
		 M95.664,83.756l4.791-2.305c0.032,0.084,6.888,13.499,6.888,13.499l-12.536,5.71L95.664,83.756z M51.674,244.442
		c-0.015,0.068-0.762,3.365-2.63,4.717c-1.472,1.065-3.227,1.589-5.025,1.355c-1.801-0.234-3.403-1.156-4.511-2.595
		c-1.108-1.439-1.589-3.224-1.355-5.02l0.757-5.735h14.337L51.674,244.442z M54.881,232.164H39.01l-0.689-7.949h21.025
		L54.881,232.164z M61.563,219.215H38.632L59.55,112.56c0.016-0.08,0.621-5.522,4.357-10.742l13.316,38.229L61.563,219.215z
		 M67.723,97.572c3.175-2.841,7.573-5.424,13.677-7.008c0.157-0.041,9.133-4.341,9.133-4.341l-0.926,18.291
		c-0.044,0.872,0.369,1.704,1.091,2.194c0.421,0.287,0.912,0.433,1.405,0.433c0.352,0,0.705-0.074,1.037-0.225l12.488-5.689
		l4.624,9.013l-5.983,84.852c-0.044,0.624,0.147,1.241,0.536,1.73l10.454,13.166v8.037h-32.95v-78.157
		c0-0.058-0.124-0.777-0.139-0.822L67.723,97.572z M109.764,223.024v3.901H82.308v-3.901H109.764z M106.272,434.801H73.85
		c0.226-2.55,1.001-6.617,3.565-9.334c1.903-2.017,4.473-2.997,7.856-2.997h21V434.801z M120.255,256.193h-0.004
		c-0.069-1.256-1.061-2.288-2.346-2.359c-1.386-0.079-2.558,0.98-2.633,2.359l-8.865,161.277H82.308V231.925h70.698l-3.822,17.369
		c-0.602,2.696-0.119,5.464,1.361,7.796c0.714,1.125,1.624,2.08,2.672,2.838v157.542h-24.097L120.255,256.193z M161.683,434.801
		h-32.428v-12.33h21c3.374,0,5.939,0.975,7.841,2.98C160.69,428.186,161.462,432.252,161.683,434.801z M164.487,252.714
		c-0.642,2.874-3.505,4.691-6.376,4.047c-1.392-0.311-2.58-1.146-3.344-2.35c-0.764-1.204-1.014-2.634-0.701-4.035l13.616-61.874
		c0.001-0.006,0.003-0.012,0.004-0.018l4.771-21.678l15.295,9.048C187.752,175.855,164.501,252.654,164.487,252.714z
		 M177.579,226.706l0.754-2.491h17.006v7.949h-14.694L177.579,226.706z M191.508,250.514c-1.802,0.233-3.62-0.203-5.025-1.355
		c-2.021-1.657-2.616-4.649-2.63-4.717l-1.572-7.278h13.059l0.004,11.5C194.3,249.673,192.967,250.324,191.508,250.514z
		 M192.882,434.801c0.219-2.357,0.944-5.974,3.259-8.424c1.73-1.832,4.072-2.726,7.158-2.734l19.38-0.042l0.024,11.2H192.882z
		 M235.254,268.633l-0.013,0.001c-0.068-1.263-1.069-2.298-2.359-2.363c-1.385-0.068-2.553,0.994-2.622,2.373l-7.466,149.957H200.71
		l-0.366-169.658h64.558l0.545,169.566h-22.083L235.254,268.633z M270.007,426.21c2.368,2.484,3.114,6.191,3.342,8.591h-29.824
		l-0.024-11.245l19.411-0.042C265.958,423.515,268.279,424.397,270.007,426.21z M265.025,159.495
		c-0.013,0.039-0.131,0.742-0.131,0.797v83.65h-64.555v-83.501c0-0.061-0.126-0.781-0.138-0.817l-13.279-38.372
		c2.934-2.842,6.86-5.329,12.081-6.517c0.089-0.02,15.835-5.479,15.835-5.479c0.851,2.336,2.583,4.447,5.121,6.121
		c3.358,2.215,7.766,3.433,12.419,3.433c0.017,0,0.035,0,0.052,0c0.002,0,0.003,0,0.005,0c8.577-0.018,15.561-4.048,17.559-9.629
		c0,0,15.766,5.39,15.856,5.41c5.246,1.17,9.185,3.622,12.127,6.429L265.025,159.495z M270.028,160.306l11.72-34.816
		c3.185,4.683,4.21,9.076,4.287,9.422c0.009,0.04,0.018,0.08,0.029,0.12l6.852,25.516l-19.094,11.407L270.028,160.306z
		 M277.362,175.662l15.256-9.114l18.753,83.498c0.654,2.871-1.149,5.739-4.021,6.394c-1.387,0.318-2.802,0.043-4.028-0.686
		c-1.643-0.976-2.395-3.454-2.413-3.513L277.362,175.662z M330.48,434.801h-18.73c5.084-5.308,7.074-11.433,7.815-14.648h10.915
		V434.801z M330.48,415.152h-10.906c-9.761-53.662-11.22-91.97-11.437-101.833h22.342V415.152z M354.21,434.801h-18.73v-14.648
		h10.915C347.136,423.368,349.126,429.493,354.21,434.801z M346.386,415.152H335.48V313.32h22.342
		C357.607,323.179,356.153,361.459,346.386,415.152z M366.948,199.58c8.806,38.349,2.535,96.804,1.108,108.74h-70.154
		c-0.892-7.434-3.674-32.927-3.515-60.275l1.717,5.583c0.631,2.651,2.246,4.907,4.556,6.359c1.669,1.05,3.559,1.59,5.483,1.59
		c0.771,0,1.548-0.087,2.318-0.263c5.559-1.267,9.05-6.821,7.786-12.372l-10.441-46.489c12.724,1.843,47.345,1.315,53.438,0.188
		C360.836,202.347,364.328,201.688,366.948,199.58z M394.641,163.261c-2.393,2.448-13.325,12.341-32.488,11.366
		c-0.147-0.021-0.296-0.027-0.446-0.022l1.645-13.002c6.072-0.346,11.806-1.275,15.209-3.093c4.772-2.549,7.606-5.37,8.425-8.383
		c0.176-0.649,0.238-1.239,0.235-1.769c0.312-0.177,0.626-0.352,0.931-0.545c1.628-1.031,3.071-2.269,4.338-3.653
		C393.958,148.156,395.735,155.06,394.641,163.261z"/>
</g>
<g>
</g>
<g>
</g>
<g>
</g>
<g>
</g>
<g>
</g>
<g>
</g>
<g>
</g>
<g>
</g>
<g>
</g>
<g>
</g>
<g>
</g>
<g>
</g>
<g>
</g>
<g>
</g>
<g>
</g>
</svg>
