<?xml version="1.0" encoding="iso-8859-1"?>
<!-- Generator: Adobe Illustrator 19.1.0, SVG Export Plug-In . SVG Version: 6.00 Build 0)  -->
<svg version="1.1" id="Capa_1" xmlns="http://www.w3.org/2000/svg" xmlns:xlink="http://www.w3.org/1999/xlink" x="0px" y="0px"
	 viewBox="0 0 439.801 439.801" style="enable-background:new 0 0 439.801 439.801;" xml:space="preserve">
<g>
	<path style="fill:#D8B4A4;" d="M169.338,239.734l-9.598-8.507c-0.037,0.036-0.08,0.064-0.119,0.098l-18.701,77.265
		c-0.174,0.779-0.026,1.624,0.425,2.334c0.451,0.712,1.152,1.204,1.974,1.387c0.823,0.184,1.667,0.037,2.379-0.414
		c0.711-0.451,1.204-1.152,1.388-1.974c0.02-0.093,0.047-0.185,0.078-0.275l22.629-65.156c0.028-0.08,0.069-0.151,0.105-0.227
		L169.338,239.734z"/>
	<path style="fill:#C69C6D;" d="M178.824,194.329c-2.989-5.375-4.672-12.408-4.672-20.595c0-1.441,0.041-2.849,0.122-4.184
		c0.08-1.328,1.159-2.335,2.495-2.338v-0.01h13.685l4.307-8.521l0.007,0.003c0.232-0.46,0.602-0.857,1.097-1.107
		c1.235-0.622,2.736-0.129,3.359,1.104l4.307,8.521h13.685v0.009c1.312-0.002,2.415,1.012,2.495,2.339
		c0.081,1.335,0.122,2.743,0.122,4.184c0,8.187-1.683,15.22-4.672,20.595h12.746c-0.354-20.084-5.016-34.376-13.872-42.508
		c-8.073-7.412-16.935-6.759-16.988-6.758c-0.086,0.001-9.186-0.574-17.193,6.848c-2.974,2.756-13.774,15.025-13.774,42.418H178.824
		z"/>
	<path style="fill:#999999;" d="M154.329,223.024h-20.514v3.901h21.071l-0.147-0.129c-0.673-0.597-0.974-1.509-0.787-2.389
		C153.975,224.304,154.088,223.798,154.329,223.024z"/>
	<path style="fill:#898785;" d="M217.415,148.138c10.294,9.451,15.513,25.833,15.513,48.691c0,1.381-1.119,2.5-2.5,2.5h-18.863
		c-0.662,0.712-1.357,1.373-2.088,1.974v0.626l12.947,4.494c8.011,1.869,12.523,7.069,14.971,11.403V109.54l-5.172-10.123
		l-16.46,7.498c-0.33,0.15-0.684,0.225-1.036,0.225c-0.455,0-0.907-0.124-1.307-0.369c-0.709-0.435-1.155-1.193-1.191-2.023
		l-0.727-16.754l-7.293,2.513c-0.062,0.021-0.124,0.04-0.187,0.056c-6.105,1.584-10.501,4.167-13.677,7.008l15.255,43.736
		C209.152,142.399,213.354,144.409,217.415,148.138z"/>
	<path style="fill:#F7A9C9;" d="M221.177,211.265c-0.09-0.02-10.274-3.55-10.274-3.55c-0.526,5.03-2.921,12.292-13.91,12.292
		c-11,0-13.389-7.276-13.911-12.291c0,0-10.184,3.529-10.273,3.549c-7.053,1.604-10.692,6.541-12.465,10.146
		c-0.048,0.127-0.108,0.246-0.176,0.362c-0.421,0.896-0.728,1.699-0.936,2.322l14.13,12.523c0.456,0.404,0.748,0.96,0.823,1.565
		l1.608,13.036h42.398l1.608-13.036c0.075-0.604,0.367-1.161,0.823-1.565l14.13-12.524
		C233.706,220.957,230.273,213.335,221.177,211.265z"/>
	<path style="fill:#C69C6D;" d="M235.521,292.349l-12.813-36.896l-0.891,7.219c1.773,3.058,8.173,14.612,13.642,30.884
		L235.521,292.349z"/>
	<polygon style="fill:#D6679F;" points="217.021,260.71 217.574,256.22 176.41,256.22 176.964,260.71 	"/>
	<path style="fill:#A6D9FF;" d="M169.069,153.395l8.176-41.685c0.099-0.898,0.699-5.129,3.443-10.03l-1.852-1.57l-12.419,47.64
		L169.069,153.395z"/>
	<path style="fill:#A6D9FF;" d="M133.328,110.24l5.984,84.851c0.044,0.624-0.148,1.241-0.536,1.73l-10.464,13.177v8.026h28.166
		c1.107-2.001,2.658-4.201,4.793-6.184v-63.847c0-0.035,0.073-0.601,0.081-0.63l13.278-50.94c-3.017-2.708-6.468-4.307-12.45-5.859
		c-0.157-0.041-9.177-4.361-9.177-4.361l0.911,17.271c0.045,0.853-0.348,1.669-1.042,2.165c-0.431,0.308-0.94,0.467-1.454,0.467
		c-0.314,0-0.631-0.059-0.931-0.18l-12.394-4.974L133.328,110.24z"/>
	<polygon style="fill:#999999;" points="129.258,107.219 133.434,99.082 132.334,98.64 119.36,98.64 118.236,99.151 
		122.376,107.219 	"/>
	<path style="fill:#C69C6D;" d="M131.289,93.64l7.018-13.682v-3.99c-3.457,1.85-7.584,2.73-12.484,2.732c0,0,0,0-0.002,0
		c0,0-0.002,0-0.004,0c-0.001,0-0.002,0-0.004,0h-0.002c-4.899-0.002-9.027-0.882-12.483-2.732v3.99l7.018,13.682H131.289z"/>
	<polygon style="fill:#999999;" points="125.817,205.1 134.256,194.473 128.455,112.219 123.179,112.219 117.379,194.473 	"/>
	<path style="fill:#D8B4A4;" d="M196.992,205.746c-2.709,0-5.237-0.513-7.557-1.474c-0.18,0.772-0.717,1.419-1.463,1.732
		c0.218,4.785,1.583,9.002,9.02,9.002c7.447,0,8.806-4.23,9.02-9.002c-0.745-0.313-1.283-0.96-1.463-1.733
		C202.23,205.233,199.701,205.746,196.992,205.746z"/>
	<path style="fill:#D8B4A4;" d="M208.694,194.986c4.182-5.202,6.138-13.248,6.138-21.252c0-0.519-0.011-1.026-0.021-1.532h-12.818
		c-0.943,0-1.806-0.531-2.232-1.373l-2.768-5.479l-2.769,5.479c-0.426,0.842-1.288,1.373-2.231,1.373h-12.818
		c-0.011,0.506-0.021,1.014-0.021,1.532c0,8.004,1.956,16.05,6.138,21.252c0.165,0.15,3.989,5.76,11.702,5.76
		C204.705,200.746,208.529,195.137,208.694,194.986z M185.443,180.13c-0.471-0.46-0.73-1.11-0.73-1.76c0-0.66,0.26-1.3,0.73-1.77
		c0.93-0.93,2.6-0.93,3.529,0c0.471,0.47,0.74,1.11,0.74,1.77c0,0.65-0.27,1.3-0.74,1.76c-0.46,0.47-1.109,0.74-1.76,0.74
		C186.553,180.87,185.903,180.6,185.443,180.13z M202.066,194.264c-1.392,0.543-3.19,0.844-5.064,0.848c-0.015,0-0.029,0-0.044,0
		c-4.991,0-8.346-1.911-8.353-4.763c-0.003-1.381,1.113-2.502,2.494-2.506c0.002,0,0.004,0,0.006,0c1.087,0,2.013,0.694,2.357,1.664
		c0.508,0.251,1.723,0.605,3.499,0.605c0.011,0,0.021,0,0.03,0c1.794-0.004,3.018-0.366,3.527-0.62
		c0.341-0.973,1.266-1.671,2.355-1.674c0.002,0,0.004,0,0.006,0c1.378,0,2.497,1.115,2.5,2.494
		C205.381,191.305,204.954,193.138,202.066,194.264z M205.003,180.14c-0.46-0.47-0.73-1.11-0.73-1.77c0-0.66,0.27-1.31,0.73-1.77
		c0.931-0.93,2.61-0.93,3.54,0c0.46,0.46,0.73,1.11,0.73,1.77c0,0.65-0.27,1.3-0.73,1.77c-0.47,0.46-1.109,0.73-1.77,0.73
		C206.113,180.87,205.473,180.6,205.003,180.14z"/>
	<polygon style="fill:#898785;" points="229.945,94.961 224.158,83.633 216.434,86.295 217.064,100.829 	"/>
	<path style="fill:#898785;" d="M166.272,199.329v9.019c1.568-0.8,3.319-1.466,5.289-1.926l12.947-4.494v-0.626
		c-0.73-0.601-1.426-1.262-2.088-1.974H166.272z"/>
	<path style="fill:#898785;" d="M176.569,148.138c9.036-8.296,18.817-8.152,20.42-8.068c0.428-0.022,1.451-0.05,2.895,0.084
		l-13.354-38.335c-0.11,0.155-0.226,0.31-0.331,0.464c-0.088,0.18-0.192,0.354-0.328,0.514c-0.007,0.008-0.016,0.013-0.022,0.021
		c-3.123,4.83-3.605,9.146-3.639,9.491c-0.008,0.081-7.346,37.518-7.346,37.518C175.418,149.244,175.982,148.677,176.569,148.138z"
		/>
	<path style="fill:#E5CBBD;" d="M342.629,54.749c-4.102-1.094-13.268-4.214-17.702-11.094c-4.434,6.88-13.601,10-17.703,11.094
		v4.911c0,13.938,7.941,25.278,17.703,25.278c9.761,0,17.702-11.34,17.702-25.278V54.749z M314.483,63.2c-0.66,0-1.3-0.27-1.77-0.73
		c-0.46-0.47-0.73-1.11-0.73-1.77c0-0.66,0.27-1.3,0.73-1.77c0.931-0.93,2.61-0.93,3.54,0c0.46,0.47,0.73,1.11,0.73,1.77
		c0,0.66-0.27,1.3-0.73,1.77C315.783,62.93,315.144,63.2,314.483,63.2z M324.927,78.053c-5.44,0-9.24-2.193-9.24-5.333
		c0-1.381,1.119-2.5,2.5-2.5c1.189,0,2.185,0.831,2.438,1.943c0.493,0.32,1.96,0.89,4.303,0.89c2.343,0,3.81-0.57,4.303-0.89
		c0.253-1.112,1.248-1.943,2.438-1.943c1.381,0,2.5,1.119,2.5,2.5C334.167,75.86,330.367,78.053,324.927,78.053z M337.133,62.47
		c-0.46,0.46-1.1,0.73-1.76,0.73c-0.66,0-1.31-0.27-1.77-0.73c-0.471-0.47-0.73-1.11-0.73-1.77c0-0.66,0.26-1.3,0.73-1.77
		c0.93-0.93,2.609-0.93,3.54,0c0.46,0.47,0.729,1.11,0.729,1.77C337.873,61.36,337.604,62,337.133,62.47z"/>
	<path style="fill:#E5CBBD;" d="M314.653,161.979c-0.819,0.727-1.28,1.418-1.196,1.814c0.264,1.23,3.479,3.059,6.178,3.873
		c1.688,0.549,4.253,0.848,6.734,1.137c3.017,0.352,6.136,0.715,8.378,1.564c4.999,1.892,9.641,3.072,13.933,3.717l1.559-12.324
		c-7.387,0.056-14.471-0.62-17.728-1.496c-5.743-1.545-12.278-2.812-17.459,1.391C314.919,161.763,314.786,161.871,314.653,161.979z
		"/>
	<path style="fill:#E5CBBD;" d="M318.698,137.949c-1.759,2.71-8.287,8.107-16.954,12.541l4.215,11.783
		c5.205-3.693,10.749-8.299,16.307-14.024c1.942-2,4.401-3.307,6.78-4.57c4.255-2.259,6.66-3.7,6.614-7.057
		c-0.001-0.087,0.002-0.174,0.011-0.261c0-0.009,0.189-2.761-1.448-4.413c-1.074-1.085-2.829-1.555-5.219-1.395
		C328.8,130.571,323.099,131.164,318.698,137.949z"/>
	<path style="fill:#B7C16F;" d="M357.138,192.89c-1.549-5.197-3.235-9.707-5.024-13.438c-0.41-0.031-7.278-0.925-10.214-1.64
		c-4.727,2.146-9.644,3.743-14.474,4.79v16.165C347.126,198.74,356.789,198.288,357.138,192.89z"/>
	<path style="fill:#B7C16F;" d="M358.459,111.035c0.904-0.494,1.838-0.922,2.797-1.278c-2.563-1.697-5.391-2.924-8.459-3.645
		l-1.997-0.479c-0.354,1.81-1.02,3.494-1.97,5.034C352.832,110.221,356.202,110.517,358.459,111.035z"/>
	<path style="fill:#FFFFFF;" d="M372.92,150.695c-1.385,0.281-2.799,0.431-4.225,0.431c-5.723,0-11.065-2.248-15.014-6.161
		l-14.518-2.918c-1.828,2.879-5.02,4.585-7.772,6.047c-2.132,1.131-4.145,2.2-5.538,3.636c-0.68,0.7-1.358,1.38-2.037,2.048
		c3.898,0.023,7.478,0.98,9.993,1.656c3.607,0.971,11.471,1.563,18.979,1.314c0.112-0.013,0.227-0.014,0.343-0.012
		c6.135-0.225,11.985-1.018,15.022-2.639C370.613,152.784,372.062,151.619,372.92,150.695z"/>
	<path style="fill:#B7C16F;" d="M322.427,198.768v-15.278c-2.877,0.404-5.688,0.632-8.35,0.632c-6.873,0-12.801-1.348-16.638-4.026
		c-1.68,3.609-3.263,7.894-4.723,12.795C293.065,198.288,302.729,198.74,322.427,198.768z"/>
	<path style="fill:#898785;" d="M293.393,175.607c-2.146,1.041-4.121,1.901-5.896,2.613l1.776,8.979
		c1.408-4.182,2.92-7.874,4.516-11.038c-0.047-0.064-0.1-0.137-0.14-0.192C293.557,175.842,293.472,175.723,293.393,175.607z"/>
	<path style="fill:#FFFFFF;" d="M328.871,125.558c3.847-0.211,6.849,0.765,8.951,2.919c2.986,3.061,2.9,7.256,2.839,8.194
		c0.001,0.198-0.018,0.382-0.026,0.573l8.81,1.771c-3.804-7.907-2.3-17.276,3.479-23.615
		C346.828,115.304,337.547,117.289,328.871,125.558z"/>
	<path style="fill:#FFFFFF;" d="M332.978,175.042c-1.665-0.63-4.473-0.957-7.186-1.273c-2.726-0.317-5.544-0.646-7.649-1.332
		c-1.228-0.366-7.132-2.322-9.068-6.212c-3.959,2.834-7.728,5.158-11.193,7.058c0.175,0.242,0.379,0.536,0.626,0.926
		c3.236,5.112,18.862,7.244,35.78,1.297C333.849,175.35,333.42,175.21,332.978,175.042z"/>
	<path style="fill:#D8B4A4;" d="M244.131,95.104c0.063-0.14,0.143-0.268,0.228-0.39l7.538-14.754v-5.175
		c-3.6,2.497-7.678,3.916-12,3.916c-4.322,0-8.4-1.419-12-3.916v5.175l7.54,14.757c0.084,0.121,0.162,0.248,0.226,0.387
		c0.024,0.054,0.035,0.109,0.056,0.164l4.179,8.179l4.179-8.179C244.096,95.213,244.107,95.157,244.131,95.104z"/>
	<path style="fill:#D8B4A4;" d="M239.897,73.7c11.73,0,21.274-13.606,21.274-30.331v-7.216c-4.819-0.817-8.115-4.066-9.55-9.346
		c-2.863,1.9-6.982,3.061-11.725,3.061s-8.861-1.161-11.725-3.061c-1.435,5.28-4.73,8.529-9.55,9.346v7.216
		C218.622,60.094,228.166,73.7,239.897,73.7z M248.894,44.2c0.93-0.93,2.6-0.93,3.54-0.01c0.46,0.47,0.73,1.12,0.73,1.77
		c0,0.66-0.27,1.31-0.73,1.77c-0.471,0.47-1.11,0.73-1.77,0.73c-0.66,0-1.3-0.26-1.77-0.73c-0.46-0.46-0.73-1.11-0.73-1.77
		C248.163,45.31,248.423,44.66,248.894,44.2z M233.419,58.093c1.175,0,2.161,0.811,2.429,1.903c0.486,0.299,1.872,0.819,4.049,0.819
		c2.176,0,3.562-0.52,4.049-0.82c0.268-1.092,1.254-1.903,2.429-1.903c1.381,0,2.5,1.119,2.5,2.5c0,3.075-3.691,5.223-8.977,5.223
		c-5.286,0-8.978-2.147-8.978-5.223C230.919,59.212,232.038,58.093,233.419,58.093z M226.633,45.96c0-0.66,0.261-1.3,0.73-1.76
		c0.93-0.93,2.609-0.93,3.53,0c0.47,0.46,0.739,1.11,0.739,1.76c0,0.66-0.27,1.31-0.739,1.77c-0.46,0.47-1.101,0.73-1.761,0.73
		c-0.66,0-1.31-0.26-1.77-0.73C226.894,47.27,226.633,46.62,226.633,45.96z"/>
	<polygon style="fill:#898785;" points="249.848,94.961 262.73,100.829 263.359,86.295 255.635,83.633 	"/>
	<rect x="122.818" y="223.024" style="fill:#4D4D4D;" width="5.997" height="3.901"/>
	<path style="fill:#B79870;" d="M223.991,20.062c0-1.381,1.119-2.5,2.5-2.5h0.001h0.001c1.381,0,2.5,1.119,2.5,2.5
		c0,1.96,4.247,4.807,10.903,4.807c6.656,0,10.903-2.847,10.903-4.807c0-1.381,1.119-2.5,2.5-2.5h0.001h0.001
		c1.381,0,2.5,1.119,2.5,2.5c0,6.191,1.807,9.856,5.369,10.952V18.238c0.005-0.243,0.05-4.204-3.381-7.71
		C254.2,6.86,248.18,5,239.897,5s-14.304,1.86-17.894,5.528c-3.431,3.506-3.386,7.466-3.382,7.633v12.853
		C222.185,29.918,223.991,26.253,223.991,20.062z"/>
	<path style="fill:#898785;" d="M242.398,109.54v125.308h32.463v-55.062c-15.939-14.603-4.541-50.565-3.717-53.08
		c0.348-1.44,4.391-13.475,13.654-20.441l4.453-8.821c-3.139-2.771-7.474-5.32-13.481-6.879c-0.062-0.016-0.125-0.035-0.186-0.056
		l-7.293-2.513l-0.727,16.754c-0.036,0.83-0.482,1.588-1.191,2.023c-0.399,0.245-0.853,0.369-1.307,0.369
		c-0.353,0-0.706-0.075-1.036-0.225l-16.46-7.498L242.398,109.54z"/>
	<path style="fill:#898785;" d="M292.879,101.354l-0.467,0.923c0.301-0.107,0.615-0.202,0.924-0.302
		C293.191,101.769,293.035,101.561,292.879,101.354z"/>
	<path style="fill:#E0BC4B;" d="M312.229,84.748c-6.032-5.449-10.005-14.661-10.005-25.087v-6.889h0.003
		c-0.001-1.178,0.83-2.227,2.029-2.456c0.266-0.052,18.171-3.659,18.171-15.186c0-1.381,1.119-2.5,2.5-2.5
		c1.381,0,2.5,1.119,2.5,2.5c0,11.555,17.99,15.151,18.172,15.186c1.196,0.23,2.026,1.28,2.026,2.456h0.004v6.889
		c0,10.426-3.973,19.638-10.004,25.087v1.777c8.413-0.44,14.373-3.149,17.723-8.085c7.714-11.369-0.022-31.186-0.102-31.385
		c-0.117-0.294-0.178-0.609-0.178-0.925c0-7.688-2.316-13.811-6.884-18.197c-8.778-8.428-23.018-7.952-23.156-7.946
		c-0.034,0.002-0.065-0.006-0.099-0.006c-0.034,0-0.066,0.007-0.101,0.006c-0.144-0.004-14.443-0.446-23.182,7.967
		c-4.554,4.384-6.862,10.499-6.862,18.176c0,0.316-0.061,0.631-0.178,0.925c-0.079,0.199-7.815,20.016-0.102,31.385
		c3.35,4.936,9.31,7.645,17.723,8.085V84.748z"/>
	<path style="fill:#E5CBBD;" d="M324.927,115.876c11.623,0,19.729-4.514,20.997-11.413l-11.382-2.731
		c-1.124-0.27-1.917-1.275-1.917-2.431V88.143c-2.405,1.16-4.997,1.795-7.698,1.795c-2.701,0-5.293-0.635-7.698-1.795v11.157
		c0,1.156-0.793,2.161-1.917,2.431l-11.382,2.731C305.199,111.362,313.304,115.876,324.927,115.876z"/>
	<path style="fill:#D8B4A4;" d="M354.865,138.522c3.015,4.762,8.186,7.604,13.83,7.604c3.088,0,6.106-0.878,8.729-2.539
		c3.689-2.336,6.247-5.969,7.204-10.23c0.956-4.261,0.197-8.639-2.14-12.328c-3.015-4.762-8.185-7.605-13.831-7.605
		c-3.087,0-6.104,0.878-8.726,2.538C352.315,120.785,350.043,130.905,354.865,138.522z M374.593,132.24c0.931-0.93,2.61-0.93,3.53,0
		c0.47,0.47,0.74,1.11,0.74,1.77c0,0.66-0.271,1.3-0.74,1.77c-0.46,0.47-1.11,0.73-1.76,0.73c-0.66,0-1.311-0.26-1.771-0.73
		c-0.47-0.47-0.729-1.11-0.729-1.77C373.863,133.35,374.123,132.71,374.593,132.24z M366.363,119.251c0.939-0.93,2.6-0.93,3.54,0
		c0.47,0.47,0.729,1.11,0.729,1.769c0,0.66-0.26,1.3-0.729,1.77c-0.47,0.461-1.11,0.73-1.771,0.73c-0.66,0-1.3-0.269-1.77-0.73
		c-0.46-0.47-0.73-1.11-0.73-1.77C365.633,120.36,365.903,119.711,366.363,119.251z M360.779,125.945
		c1.168-0.738,2.711-0.392,3.449,0.775c0.577,0.911,0.491,2.053-0.13,2.861c0.065,0.461,0.339,1.368,1.022,2.447
		c0.683,1.077,1.385,1.712,1.774,1.968c0.987-0.218,2.064,0.194,2.642,1.106c0.738,1.167,0.392,2.711-0.774,3.45
		c-0.34,0.216-0.993,0.532-1.889,0.532c-0.793,0-1.775-0.248-2.901-1.031c-1.101-0.767-2.193-1.957-3.076-3.351
		C358.509,130.931,358.463,127.412,360.779,125.945z"/>
	<path style="fill:#D6679F;" d="M215.02,428.149h-10.08l-0.002,6.651h19.153C222.777,431.963,220.074,428.161,215.02,428.149z"/>
	<path style="fill:#333333;" d="M158.309,422.471h-21v12.33H164.5c0.695-2.019,1.87-4.364,3.607-6.425
		C166.234,424.411,163.02,422.471,158.309,422.471z"/>
	<path style="fill:#999999;" d="M199.938,434.801l0.002-9.427c-2.997,2.707-4.549,6.737-5.295,9.427H199.938z"/>
	<path style="fill:#5576A5;" d="M218.956,417.471h10.066l3.779-72.764h-6.221C226.275,369.691,221.452,402.206,218.956,417.471z"/>
	<path style="fill:#999999;" d="M217.952,423.451c5.732,1.209,9.204,5.837,10.942,9.833v-10.813h-10.773
		C218.062,422.818,218.004,423.15,217.952,423.451z"/>
	<path style="fill:#D8B4A4;" d="M204.961,344.707l-0.02,78.442h7.989c1.639-9.399,8.287-49.22,8.65-78.442H204.961z"/>
	<path style="fill:#A6D9FF;" d="M143.031,81.703l-6.739,13.138l12.424,4.986l-0.849-16.095l-4.742-2.281
		C143.093,81.535,143.072,81.623,143.031,81.703z"/>
	<path style="fill:#D8B4A4;" d="M189.044,423.149l-0.021-78.442h-16.619c0.363,29.223,7.012,69.043,8.65,78.442H189.044z"/>
	<path style="fill:#D6679F;" d="M178.965,428.149c-2.698,0.006-4.721,1.096-6.226,2.54c-0.014,0.013-0.026,0.026-0.04,0.039
		c-1.291,1.252-2.198,2.763-2.805,4.073h19.152l-0.002-6.651H178.965z"/>
	<path style="fill:#E5CBBD;" d="M311.522,415.152h10.905V313.32h-22.343C300.301,323.183,301.76,361.491,311.522,415.152z"/>
	<path style="fill:#B7C16F;" d="M297.2,152.63c-1.445,0.622-2.932,1.204-4.449,1.736c-0.042,0.014-0.081,0.032-0.123,0.044
		c-3.722,1.297-7.628,2.284-11.576,2.756c-1.376,0.162-2.614-0.815-2.779-2.186c-0.164-1.371,0.815-2.615,2.186-2.779
		c2.694-0.322,5.376-0.918,7.985-1.696c-2.184-5.631-3.536-15.737,2.889-21.118c1.06-0.886,2.636-0.747,3.523,0.312
		c0.886,1.058,0.747,2.635-0.312,3.521c-4.267,3.574-2.971,11.63-1.372,15.653c1.416-0.554,2.796-1.15,4.129-1.776
		c0.151-0.096,0.314-0.179,0.489-0.242c0.018-0.006,0.035-0.007,0.052-0.013c8.663-4.156,15.258-9.448,16.662-11.614
		c1.026-1.583,2.123-2.896,3.232-4.004c0.05-0.1,0.095-0.202,0.159-0.297c1.462-2.172,2.98-4.116,4.532-5.871v-4.244
		c-12.803-0.668-21.675-6.501-23.373-15.178l-1.986,0.477c-15.709,3.475-21.105,21.916-21.118,21.961
		c-0.01,0.033-11.496,35.371,2.238,48.012c3.095-0.83,12.191-3.686,23.493-10.928L297.2,152.63z"/>
	<path style="fill:#999999;" d="M271.898,422.471h-21v12.33h32.429c-0.222-2.549-0.994-6.614-3.588-9.35
		C277.838,423.446,275.272,422.471,271.898,422.471z"/>
	<path style="fill:#998675;" d="M303.697,434.801h18.729v-14.648h-10.915C310.771,423.368,308.78,429.493,303.697,434.801z"/>
	<path style="fill:#F7A9C9;" d="M176.199,265.71c-3.621,6.441-20.399,38.157-21.159,73.997h83.904
		c-0.76-35.84-17.538-67.556-21.159-73.997H176.199z"/>
	<path style="fill:#C69C6D;" d="M239.877,304.892l-0.174,3.343c0.168,0.691,0.335,1.383,0.495,2.083l-0.274-5.292L239.877,304.892z"
		/>
	<path style="fill:#E5CBBD;" d="M327.427,415.152h10.905c9.768-53.693,11.222-91.974,11.438-101.833h-22.343V415.152z"/>
	<path style="fill:#D8B4A4;" d="M246.9,309.923c0.184,0.821,0.677,1.522,1.388,1.974c0.712,0.452,1.558,0.598,2.378,0.414
		c0.822-0.184,1.523-0.676,1.975-1.387c0.451-0.711,0.599-1.555,0.415-2.376l-18.733-77.389l-9.676,8.576l-0.559,4.531
		c0.035,0.076,0.076,0.146,0.105,0.227l16.199,46.642c0.001,0.005,0.003,0.01,0.005,0.015l6.425,18.499
		C246.853,309.738,246.879,309.83,246.9,309.923z"/>
	<path style="fill:#998675;" d="M327.427,420.152v14.648h18.73c-5.083-5.308-7.073-11.433-7.814-14.648H327.427z"/>
	<path style="fill:#5576A5;" d="M274.861,239.848H241.57l16.353,67.566c0.485,2.167,0.105,4.351-1.062,6.19
		c-1.167,1.839-2.98,3.113-5.105,3.587c-0.597,0.133-1.198,0.199-1.795,0.199c-1.529,0-3.03-0.433-4.352-1.272
		c-0.036-0.023-0.069-0.05-0.105-0.074l5.268,101.426h24.09V239.848z"/>
	<path style="fill:#C69C6D;" d="M125.817,73.7c9.557-0.001,16.733-3.402,20.383-19.305c-1.191,0.503-2.506,0.788-3.893,0.788h-5.277
		c-5.289,0-9.593-4.071-9.593-9.076v-3.123h-3.239v3.123c0,5.004-4.304,9.076-9.593,9.076h-5.277c-1.386,0-2.701-0.285-3.893-0.788
		C109.084,70.298,116.26,73.699,125.817,73.7z M119.34,60.816c1.175,0,2.161,0.811,2.429,1.903c0.486,0.299,1.872,0.819,4.049,0.819
		c2.176,0,3.562-0.52,4.049-0.82c0.268-1.092,1.254-1.903,2.429-1.903c1.381,0,2.5,1.119,2.5,2.5c0,3.075-3.691,5.223-8.977,5.223
		c-5.286,0-8.978-2.147-8.978-5.223C116.84,61.935,117.959,60.816,119.34,60.816z"/>
	<path style="fill:#A6D9FF;" d="M108.603,81.703c-0.041-0.08-0.062-0.168-0.093-0.252l-4.791,2.305l-0.856,16.905l12.535-5.71
		L108.603,81.703z"/>
	<path style="fill:#767743;" d="M324.927,203.769c-11.27,0-20.173,0-26.265-1.128c-1.591-0.294-5.083-0.954-7.703-3.062
		c-8.809,38.356-2.537,96.8-1.108,108.74h70.152c1.427-11.935,7.698-70.391-1.108-108.74c-2.62,2.108-6.112,2.767-7.703,3.062
		C345.1,203.769,336.197,203.769,324.927,203.769z"/>
	<path style="fill:#B7C16F;" d="M380.1,147.812c-0.305,0.193-0.619,0.368-0.932,0.545c0.002,0.529-0.059,1.12-0.235,1.769
		c-0.818,3.014-3.653,5.834-8.425,8.383c-3.403,1.818-9.137,2.747-15.209,3.092l-1.645,13.004c0.148-0.005,0.297,0,0.442,0.021
		c19.167,0.977,30.099-8.917,32.491-11.366c1.093-8.2-0.684-15.105-2.15-19.102C383.171,145.544,381.728,146.782,380.1,147.812z"/>
	<path style="fill:#4D4D4D;" d="M161.272,344.707h-8.758c-1.381,0-2.5-1.119-2.5-2.5c0-21.611,5.619-41.621,11.258-56.272v-1.671
		l-9.343,26.901c-0.501,2.06-1.758,3.814-3.553,4.953c-1.322,0.839-2.823,1.272-4.353,1.272c-0.598,0-1.198-0.066-1.796-0.199
		c-2.124-0.475-3.938-1.748-5.104-3.587c-1.167-1.839-1.548-4.022-1.072-6.148l18.281-75.53h-63.97v185.545h24.098l8.865-161.277
		c0.076-1.378,1.234-2.45,2.634-2.359c1.285,0.071,2.277,1.103,2.346,2.359h0.004l8.866,161.277h24.097V344.707z"/>
	<path style="fill:#D8D5D4;" d="M109.327,50.184h5.277c2.532,0,4.593-1.828,4.593-4.076v-3.123h-14.464v3.123
		C104.734,48.355,106.794,50.184,109.327,50.184z M110.193,44.82c0.939-0.93,2.609-0.93,3.54-0.01c0.46,0.47,0.729,1.12,0.729,1.77
		c0,0.66-0.27,1.31-0.729,1.77c-0.471,0.47-1.11,0.73-1.771,0.73c-0.66,0-1.3-0.26-1.77-0.73c-0.46-0.46-0.73-1.11-0.73-1.77
		C109.463,45.92,109.734,45.28,110.193,44.82z"/>
	<path style="fill:#D8D5D4;" d="M132.437,46.108c0,2.248,2.061,4.076,4.593,4.076h5.277c2.533,0,4.594-1.828,4.594-4.076v-3.123
		h-14.464V46.108z M137.903,44.82c0.92-0.93,2.6-0.94,3.53,0c0.47,0.46,0.739,1.11,0.739,1.76c0,0.66-0.27,1.31-0.739,1.77
		c-0.461,0.47-1.11,0.73-1.761,0.73c-0.66,0-1.309-0.26-1.77-0.73c-0.47-0.46-0.73-1.11-0.73-1.77
		C137.173,45.92,137.434,45.28,137.903,44.82z"/>
	<path style="fill:#754C24;" d="M105.276,19.252c2.917-2.917,5.676-1.427,7.891-0.23c2.464,1.331,5.838,3.155,12.649,3.156
		c6.813-0.001,10.187-1.825,12.65-3.156c2.216-1.198,4.972-2.691,7.891,0.23c2.723,2.723,2.916,12.556,2.53,18.732h0.513
		c1.381,0,2.5,1.119,2.5,2.5v4.714c1.673-3.54,2.996-10.499,0.83-24.028C151.4,12.855,150.142,5.001,125.817,5
		c-24.324,0.001-25.581,7.855-26.912,16.17c-2.166,13.528-0.844,20.487,0.829,24.027v-4.713c0-1.381,1.119-2.5,2.5-2.5h0.513
		C102.361,31.808,102.555,21.974,105.276,19.252z"/>
	<path style="fill:#C69C6D;" d="M142.759,22.716c-0.068-0.065-0.128-0.11-0.171-0.139c-0.347,0.089-1.115,0.504-1.743,0.844
		c-2.599,1.405-6.947,3.755-15.022,3.757c0,0,0,0-0.002,0c0,0-0.002,0-0.004,0c-0.001,0-0.002,0-0.004,0c-0.001,0-0.002,0-0.002,0
		c-8.073-0.002-12.422-2.352-15.021-3.757c-0.627-0.338-1.393-0.752-1.741-0.843c-0.051,0.037-0.13,0.102-0.237,0.209
		c-0.838,1.208-1.574,8.189-1.062,15.197h36.135C144.397,30.977,143.655,23.99,142.759,22.716z"/>
	<path style="fill:#333333;" d="M85.47,425.467c-2.564,2.717-3.339,6.783-3.565,9.334h32.422v-12.33h-21
		C89.943,422.471,87.373,423.451,85.47,425.467z"/>
	<rect x="90.362" y="223.024" style="fill:#999999;" width="27.456" height="3.901"/>
	<path style="fill:#A6D9FF;" d="M90.362,139.867v78.157h32.95v-8.037l-10.454-13.166c-0.389-0.49-0.58-1.107-0.536-1.73
		l5.983-84.852l-4.624-9.013l-12.488,5.689c-0.33,0.151-0.684,0.225-1.036,0.225c-0.493,0-0.984-0.146-1.405-0.433
		c-0.722-0.49-1.136-1.322-1.092-2.194l0.926-18.29c0,0-8.975,4.3-9.132,4.34c-6.104,1.583-10.501,4.166-13.677,7.008l14.446,41.473
		C90.24,139.094,90.362,139.812,90.362,139.867z"/>
	<path style="fill:#C69C6D;" d="M46.206,242.899c-0.233,1.796,0.248,3.581,1.355,5.02c1.108,1.439,2.71,2.361,4.511,2.595
		c1.8,0.234,3.537-0.313,5.025-1.355c1.986-1.391,2.616-4.649,2.631-4.717l1.572-7.278H46.963L46.206,242.899z"/>
	<polygon style="fill:#A6D9FF;" points="47.065,232.164 62.935,232.164 67.4,224.215 46.375,224.215 	"/>
	<path style="fill:#A6D9FF;" d="M67.641,112.31c-0.008,0.08-20.954,106.906-20.954,106.906h22.931l15.661-79.165l-13.316-38.231
		C68.225,107.039,67.676,111.941,67.641,112.31z"/>
	<path style="fill:#1C1B1A;" d="M239.897,65.816c5.286,0,8.977-2.147,8.977-5.223c0-1.381-1.119-2.5-2.5-2.5
		c-1.175,0-2.161,0.811-2.429,1.903c-0.486,0.3-1.873,0.82-4.049,0.82c-2.177,0-3.562-0.52-4.049-0.819
		c-0.268-1.093-1.254-1.903-2.429-1.903c-1.381,0-2.5,1.119-2.5,2.5C230.919,63.668,234.61,65.816,239.897,65.816z"/>
	<path style="fill:#1C1B1A;" d="M230.894,47.73c0.47-0.46,0.739-1.11,0.739-1.77c0-0.65-0.27-1.3-0.739-1.76
		c-0.921-0.93-2.601-0.93-3.53,0c-0.47,0.46-0.73,1.1-0.73,1.76c0,0.66,0.261,1.31,0.73,1.77c0.46,0.47,1.109,0.73,1.77,0.73
		C229.793,48.46,230.434,48.2,230.894,47.73z"/>
	<path style="fill:#1C1B1A;" d="M250.663,48.46c0.66,0,1.3-0.26,1.77-0.73c0.46-0.46,0.73-1.11,0.73-1.77c0-0.65-0.27-1.3-0.73-1.77
		c-0.94-0.92-2.61-0.92-3.54,0.01c-0.471,0.46-0.73,1.11-0.73,1.76c0,0.66,0.27,1.31,0.73,1.77
		C249.363,48.2,250.003,48.46,250.663,48.46z"/>
	<path style="fill:#1C1B1A;" d="M202.879,187.818c-0.002,0-0.004,0-0.006,0c-1.089,0.002-2.014,0.701-2.355,1.674
		c-0.51,0.254-1.733,0.616-3.527,0.62c-0.01,0-0.02,0-0.03,0c-1.776,0-2.991-0.355-3.499-0.605c-0.344-0.97-1.27-1.664-2.357-1.664
		c-0.002,0-0.004,0-0.006,0c-1.381,0.003-2.497,1.125-2.494,2.506c0.007,2.852,3.361,4.763,8.353,4.763c0.015,0,0.029,0,0.044,0
		c1.874-0.004,3.673-0.305,5.064-0.848c2.888-1.127,3.314-2.96,3.312-3.952C205.376,188.934,204.257,187.818,202.879,187.818z"/>
	<path style="fill:#1C1B1A;" d="M189.713,178.37c0-0.66-0.27-1.3-0.74-1.77c-0.93-0.93-2.6-0.93-3.529,0
		c-0.471,0.47-0.73,1.11-0.73,1.77c0,0.65,0.26,1.3,0.73,1.76c0.46,0.47,1.109,0.74,1.77,0.74c0.65,0,1.3-0.27,1.76-0.74
		C189.443,179.67,189.713,179.02,189.713,178.37z"/>
	<path style="fill:#1C1B1A;" d="M209.273,178.37c0-0.66-0.27-1.31-0.73-1.77c-0.93-0.93-2.609-0.93-3.54,0
		c-0.46,0.46-0.73,1.11-0.73,1.77c0,0.66,0.27,1.3,0.73,1.77c0.47,0.46,1.11,0.73,1.77,0.73c0.66,0,1.3-0.27,1.77-0.73
		C209.003,179.67,209.273,179.02,209.273,178.37z"/>
	<path style="fill:#1C1B1A;" d="M125.818,68.539c5.286,0,8.977-2.147,8.977-5.223c0-1.381-1.119-2.5-2.5-2.5
		c-1.175,0-2.161,0.811-2.429,1.903c-0.486,0.3-1.873,0.82-4.049,0.82c-2.177,0-3.562-0.52-4.049-0.819
		c-0.267-1.093-1.254-1.903-2.429-1.903c-1.381,0-2.5,1.119-2.5,2.5C116.84,66.391,120.531,68.539,125.818,68.539z"/>
	<path style="fill:#1C1B1A;" d="M111.963,49.08c0.66,0,1.3-0.26,1.771-0.73c0.46-0.46,0.729-1.11,0.729-1.77
		c0-0.65-0.27-1.3-0.729-1.77c-0.931-0.92-2.601-0.92-3.54,0.01c-0.46,0.46-0.73,1.1-0.73,1.76c0,0.66,0.271,1.31,0.73,1.77
		C110.663,48.82,111.303,49.08,111.963,49.08z"/>
	<path style="fill:#1C1B1A;" d="M139.673,49.08c0.65,0,1.3-0.26,1.761-0.73c0.47-0.46,0.739-1.11,0.739-1.77
		c0-0.65-0.27-1.3-0.739-1.76c-0.931-0.94-2.61-0.93-3.53,0c-0.47,0.46-0.73,1.1-0.73,1.76c0,0.66,0.261,1.31,0.73,1.77
		C138.363,48.82,139.013,49.08,139.673,49.08z"/>
	<path style="fill:#1C1B1A;" d="M331.667,70.22c-1.19,0-2.185,0.831-2.438,1.943c-0.493,0.32-1.96,0.89-4.303,0.89
		c-2.343,0-3.809-0.57-4.303-0.89c-0.253-1.112-1.248-1.943-2.438-1.943c-1.381,0-2.5,1.119-2.5,2.5c0,3.14,3.8,5.333,9.24,5.333
		c5.441,0,9.24-2.193,9.24-5.333C334.167,71.339,333.048,70.22,331.667,70.22z"/>
	<path style="fill:#1C1B1A;" d="M333.604,58.93c-0.471,0.47-0.73,1.11-0.73,1.77c0,0.66,0.26,1.3,0.73,1.77
		c0.46,0.46,1.109,0.73,1.77,0.73c0.66,0,1.3-0.27,1.76-0.73c0.471-0.47,0.74-1.11,0.74-1.77c0-0.66-0.27-1.3-0.729-1.77
		C336.213,58,334.533,58,333.604,58.93z"/>
	<path style="fill:#1C1B1A;" d="M316.983,60.7c0-0.66-0.27-1.3-0.73-1.77c-0.93-0.93-2.609-0.93-3.54,0
		c-0.46,0.47-0.73,1.11-0.73,1.77c0,0.66,0.27,1.3,0.73,1.77c0.471,0.46,1.11,0.73,1.77,0.73c0.66,0,1.3-0.27,1.77-0.73
		C316.713,62,316.983,61.36,316.983,60.7z"/>
	<path style="fill:#1C1B1A;" d="M360.896,134.703c0.883,1.394,1.976,2.584,3.076,3.351c1.126,0.784,2.108,1.031,2.901,1.031
		c0.896,0,1.549-0.316,1.889-0.532c1.166-0.739,1.513-2.283,0.774-3.45c-0.578-0.912-1.654-1.324-2.642-1.106
		c-0.39-0.256-1.092-0.891-1.774-1.968c-0.683-1.08-0.957-1.986-1.022-2.447c0.621-0.808,0.707-1.95,0.13-2.861
		c-0.738-1.167-2.281-1.514-3.449-0.775C358.463,127.412,358.509,130.931,360.896,134.703z"/>
	<path style="fill:#1C1B1A;" d="M368.133,123.52c0.66,0,1.301-0.269,1.771-0.73c0.47-0.47,0.729-1.11,0.729-1.77
		c0-0.66-0.26-1.3-0.729-1.769c-0.94-0.93-2.601-0.93-3.54,0c-0.46,0.46-0.73,1.11-0.73,1.769c0,0.66,0.271,1.3,0.73,1.77
		C366.833,123.251,367.473,123.52,368.133,123.52z"/>
	<path style="fill:#1C1B1A;" d="M376.363,136.51c0.649,0,1.3-0.26,1.76-0.73c0.47-0.47,0.74-1.11,0.74-1.77
		c0-0.66-0.271-1.3-0.74-1.77c-0.92-0.93-2.6-0.93-3.53,0c-0.47,0.47-0.729,1.11-0.729,1.77c0,0.66,0.26,1.3,0.729,1.77
		C375.053,136.251,375.703,136.51,376.363,136.51z"/>
	<path style="fill:#1C1B1A;" d="M386.337,106.535c-1.166,0.739-1.513,2.283-0.774,3.45c0.74,1.167,2.284,1.513,3.45,0.775
		c1.407-0.894,3.28-0.473,4.174,0.936c0.893,1.41,0.472,3.283-0.939,4.175l-5.108,3.235c-0.145-0.249-0.271-0.506-0.426-0.75
		c-3.938-6.218-10.686-9.93-18.056-9.93c-0.317,0-0.633,0.02-0.949,0.034c-3.947-3.556-8.567-5.991-13.757-7.211l-16.327-3.918
		v-5.797c10.202-0.478,17.556-3.932,21.868-10.298c8.576-12.658,1.817-32.253,0.572-35.575c-0.096-8.885-2.927-16.061-8.418-21.333
		c-9.98-9.583-25.179-9.382-26.717-9.339c-1.481-0.045-16.722-0.266-26.725,9.339c-5.491,5.273-8.322,12.448-8.418,21.333
		c-1.245,3.322-8.004,22.917,0.572,35.575c4.312,6.366,11.666,9.82,21.868,10.298v5.797l-13.787,3.309
		c-1.068-1.729-4.415-5.603-4.553-5.711c-3.718-3.686-9.065-7.163-16.767-9.177l-20.226-6.97v-8.503
		c5.668-6.485,9.274-16.138,9.274-26.907l-0.002-25.035c0.01-0.248,0.181-6.121-4.698-11.193C256.913,2.403,249.654,0,239.897,0
		s-17.017,2.403-21.574,7.142c-4.879,5.072-4.708,10.945-4.7,11.096V43.37c0,10.769,3.606,20.421,9.274,26.907v8.503l-20.226,6.97
		c-9.473,2.478-15.424,7.091-19.169,11.761l-4.405-3.736c-3.872-3.877-8.087-6.062-15.423-7.988l-20.367-9.796v-3.863
		c3.953-4.189,6.632-10.479,8.308-19.171c3.379-1.86,9.891-8.606,6.054-32.577C155.948,9.642,152.219,0.002,125.822,0
		c0,0,0,0-0.001,0c0,0-0.003,0-0.005,0c-0.001,0-0.002,0-0.004,0h-0.001C99.414,0.002,95.686,9.642,93.967,20.38
		c-3.837,23.97,2.674,30.715,6.053,32.576c1.676,8.692,4.354,14.982,8.308,19.171v3.863l-20.368,9.797
		C65.49,91.738,62.894,109.74,62.676,111.71c0,0-21.516,110.097-21.514,110.144c0.002,0.026-0.006,0.052-0.004,0.078l1.1,12.674
		l-1.01,7.644c-0.406,3.126,0.429,6.222,2.352,8.719c1.923,2.498,4.703,4.097,7.828,4.503c0.518,0.067,1.033,0.101,1.547,0.101
		c2.587,0,5.089-0.847,7.173-2.452c2.469-1.9,4.06-4.638,4.489-7.719l2.125-9.841l7.089-12.621c0.028-0.05,0.047-0.103,0.071-0.154
		c0.023-0.049,11.44-57.398,11.44-57.398v55.137v198.8c-1.306,0.705-2.485,1.606-3.528,2.71c-5.49,5.816-5.026,15.021-5.004,15.41
		c0.076,1.323,1.171,2.356,2.496,2.356h37.5c1.381,0,2.5-1.119,2.5-2.5v-17.264l6.49-118.083l6.492,118.083v17.264
		c0,1.381,1.119,2.5,2.5,2.5h96.586c1.381,0,2.5-1.119,2.5-2.5v-17.257l3.914-75.39c0,0,4.008,0.035,4.174,0l3.916,75.39v17.257
		c0,1.381,1.119,2.5,2.5,2.5h37.5c1.325,0,2.42-1.033,2.496-2.356c0.023-0.389,0.486-9.594-5.004-15.41
		c-1.043-1.105-2.224-2.006-3.529-2.711V237.376c0-0.005-0.002-0.009-0.002-0.014c0-0.004,0.002-0.009,0.002-0.014V180.82
		c0.754-0.204,1.721-0.486,2.883-0.866l3.512,17.757c-10.287,43.42-1.488,110.48-1.092,113.441c0.166,1.241,1.226,2.167,2.478,2.167
		h7.442c0.217,10.015,1.703,49.387,11.82,104.376c-0.319,1.921-2.382,11.839-11.57,17.473c-0.954,0.586-1.403,1.733-1.1,2.811
		c0.304,1.077,1.287,1.821,2.406,1.821h56.572c1.119,0,2.102-0.744,2.406-1.821c0.304-1.078-0.146-2.225-1.1-2.811
		c-9.191-5.636-11.252-15.56-11.57-17.475c10.117-54.988,11.603-94.359,11.82-104.374h7.442c1.252,0,2.311-0.927,2.478-2.167
		c0.415-3.097,10.024-76.327-2.633-119.275c-1.353-4.592-2.819-8.698-4.374-12.27c21.475-0.491,33.006-13.405,33.157-13.579
		c0.31-0.356,0.511-0.792,0.582-1.258c1.896-12.355-2.018-22.169-3.622-25.54c0.741-1.506,1.33-3.098,1.707-4.777
		c0.809-3.6,0.665-7.261-0.354-10.704l5.771-3.655c3.738-2.367,4.854-7.334,2.488-11.075
		C395.043,105.282,390.075,104.168,386.337,106.535z M368.658,113.425c5.646,0,10.816,2.843,13.831,7.605
		c2.337,3.689,3.096,8.067,2.14,12.328c-0.957,4.261-3.516,7.894-7.204,10.23c-2.623,1.661-5.642,2.539-8.729,2.539
		c-5.645,0-10.815-2.843-13.83-7.604c-4.822-7.617-2.55-17.737,5.067-22.559C362.554,114.302,365.571,113.425,368.658,113.425z
		 M297.439,180.095c3.837,2.679,9.765,4.026,16.638,4.026c2.662,0,5.474-0.227,8.35-0.632v15.278
		c-19.698-0.027-29.362-0.479-29.711-5.878C294.176,187.989,295.759,183.704,297.439,180.095z M289.273,187.198l-1.776-8.979
		c1.774-0.711,3.749-1.572,5.896-2.613c0.079,0.116,0.164,0.235,0.257,0.361c0.04,0.055,0.093,0.129,0.14,0.192
		C292.193,179.324,290.682,183.016,289.273,187.198z M298.506,174.21c-0.247-0.391-0.451-0.684-0.626-0.926
		c3.465-1.899,7.234-4.224,11.193-7.058c1.936,3.89,7.841,5.846,9.068,6.212c2.105,0.686,4.924,1.015,7.649,1.332
		c2.714,0.316,5.521,0.643,7.186,1.273c0.442,0.168,0.871,0.307,1.309,0.464C317.368,181.453,301.742,179.321,298.506,174.21z
		 M349.444,139.014l-8.81-1.771c0.009-0.191,0.027-0.375,0.026-0.573c0.061-0.938,0.148-5.133-2.839-8.194
		c-2.102-2.154-5.104-3.13-8.951-2.919c8.676-8.27,17.957-10.254,24.053-10.159C347.145,121.738,345.641,131.107,349.444,139.014z
		 M329.004,130.552c2.39-0.16,4.145,0.311,5.219,1.395c1.637,1.653,1.448,4.404,1.448,4.413c-0.009,0.087-0.012,0.174-0.011,0.261
		c0.046,3.356-2.359,4.798-6.614,7.057c-2.379,1.263-4.838,2.569-6.78,4.57c-5.558,5.725-11.102,10.331-16.307,14.024l-4.215-11.783
		c8.667-4.434,15.195-9.83,16.954-12.541C323.099,131.164,328.8,130.571,329.004,130.552z M332.511,160.264
		c3.257,0.876,10.341,1.552,17.728,1.496l-1.559,12.324c-4.292-0.645-8.934-1.825-13.933-3.717
		c-2.242-0.849-5.361-1.212-8.378-1.564c-2.481-0.288-5.047-0.587-6.734-1.137c-2.699-0.814-5.914-2.643-6.178-3.873
		c-0.084-0.396,0.377-1.088,1.196-1.814c0.133-0.107,0.266-0.216,0.398-0.324C320.233,157.452,326.768,158.719,332.511,160.264z
		 M327.427,182.602c4.83-1.047,9.747-2.643,14.474-4.79c2.935,0.714,9.804,1.608,10.214,1.64c1.788,3.73,3.475,8.24,5.024,13.438
		c-0.349,5.398-10.012,5.851-29.711,5.878V182.602z M352.788,156.75c-7.508,0.249-15.371-0.344-18.979-1.314
		c-2.516-0.677-6.095-1.634-9.993-1.656c0.679-0.669,1.357-1.348,2.037-2.048c1.394-1.436,3.406-2.504,5.538-3.636
		c2.753-1.462,5.944-3.168,7.772-6.047l14.518,2.918c3.948,3.913,9.291,6.161,15.014,6.161c1.426,0,2.84-0.15,4.225-0.431
		c-0.858,0.923-2.307,2.089-4.768,3.404c-3.036,1.622-8.887,2.415-15.022,2.639C353.015,156.736,352.901,156.737,352.788,156.75z
		 M350.8,105.633l1.997,0.479c3.068,0.721,5.896,1.948,8.459,3.645c-0.959,0.356-1.892,0.784-2.797,1.278
		c-2.257-0.519-5.627-0.814-9.629-0.368C349.78,109.127,350.445,107.442,350.8,105.633z M324.927,84.938
		c-9.762,0-17.703-11.34-17.703-25.278v-4.911c4.102-1.093,13.269-4.213,17.703-11.094c4.435,6.88,13.601,10,17.702,11.094v4.911
		C342.629,73.599,334.688,84.938,324.927,84.938z M294.506,78.439c-7.714-11.369,0.023-31.186,0.102-31.385
		c0.117-0.294,0.178-0.609,0.178-0.925c0-7.677,2.309-13.792,6.862-18.176c8.738-8.413,23.038-7.972,23.182-7.967
		c0.034,0.002,0.066-0.006,0.101-0.006c0.033,0,0.064,0.007,0.099,0.006c0.139-0.005,14.378-0.482,23.156,7.946
		c4.567,4.386,6.884,10.509,6.884,18.197c0,0.316,0.061,0.631,0.178,0.925c0.079,0.199,7.815,20.016,0.102,31.385
		c-3.35,4.936-9.31,7.645-17.723,8.085v-1.777c6.031-5.449,10.004-14.661,10.004-25.087v-6.889h-0.004
		c0-1.176-0.83-2.225-2.026-2.456c-0.182-0.035-18.172-3.631-18.172-15.186c0-1.381-1.119-2.5-2.5-2.5c-1.381,0-2.5,1.119-2.5,2.5
		c0,11.527-17.905,15.134-18.171,15.186c-1.199,0.229-2.03,1.278-2.029,2.456h-0.003v6.889c0,10.427,3.973,19.639,10.005,25.087
		v1.777C303.815,86.084,297.855,83.375,294.506,78.439z M315.312,101.732c1.124-0.27,1.917-1.275,1.917-2.431V88.144
		c2.405,1.16,4.997,1.795,7.698,1.795c2.701,0,5.293-0.636,7.698-1.795v11.158c0,1.156,0.793,2.161,1.917,2.431l11.382,2.731
		c-1.268,6.899-9.374,11.413-20.997,11.413c-11.623,0-19.727-4.514-20.997-11.413L315.312,101.732z M292.879,101.354
		c0.156,0.207,0.312,0.415,0.457,0.621c-0.309,0.1-0.623,0.194-0.924,0.302L292.879,101.354z M265.066,107.141
		c0.454,0,0.907-0.124,1.307-0.369c0.709-0.435,1.155-1.193,1.191-2.023l0.727-16.754l7.293,2.513
		c0.061,0.021,0.124,0.04,0.186,0.056c6.008,1.559,10.343,4.107,13.481,6.879l-4.453,8.821
		c-9.264,6.966-13.307,19.001-13.654,20.441c-0.824,2.515-12.223,38.477,3.717,53.08v55.062h-32.463V109.54l5.172-10.123
		l16.46,7.498C264.36,107.066,264.714,107.141,265.066,107.141z M239.897,103.446l-4.179-8.179c-0.021-0.054-0.031-0.11-0.056-0.164
		c-0.063-0.139-0.142-0.266-0.226-0.387l-7.54-14.757v-5.175c3.6,2.497,7.678,3.916,12,3.916c4.322,0,8.4-1.419,12-3.916v5.175
		l-7.538,14.754c-0.085,0.122-0.164,0.25-0.228,0.39c-0.024,0.054-0.035,0.109-0.056,0.164L239.897,103.446z M263.359,86.295
		l-0.63,14.534l-12.882-5.868l5.787-11.328L263.359,86.295z M222.003,10.528C225.593,6.86,231.613,5,239.897,5
		s14.304,1.86,17.893,5.528c3.431,3.506,3.386,7.466,3.381,7.71v12.776c-3.562-1.096-5.369-4.762-5.369-10.952
		c0-1.381-1.119-2.5-2.5-2.5h-0.001H253.3c-1.381,0-2.5,1.119-2.5,2.5c0,1.96-4.247,4.807-10.903,4.807
		c-6.656,0-10.903-2.847-10.903-4.807c0-1.381-1.119-2.5-2.5-2.5h-0.001h-0.001c-1.381,0-2.5,1.119-2.5,2.5
		c0,6.191-1.807,9.856-5.37,10.953V18.162C218.617,17.995,218.572,14.034,222.003,10.528z M218.622,43.37v-7.216
		c4.819-0.817,8.115-4.066,9.55-9.346c2.863,1.9,6.982,3.061,11.725,3.061s8.861-1.161,11.725-3.061
		c1.435,5.28,4.73,8.529,9.55,9.346v7.216c0,16.724-9.544,30.331-21.274,30.331C228.166,73.7,218.622,60.094,218.622,43.37z
		 M224.158,83.633l5.787,11.328l-12.882,5.868l-0.63-14.534L224.158,83.633z M204.023,90.564c0.062-0.016,0.125-0.035,0.187-0.056
		l7.293-2.513l0.727,16.754c0.036,0.83,0.482,1.588,1.191,2.023c0.399,0.245,0.852,0.369,1.307,0.369
		c0.353,0,0.706-0.075,1.036-0.225l16.46-7.498l5.172,10.123v108.285c-2.447-4.334-6.96-9.534-14.971-11.403l-12.947-4.494v-0.626
		c0.73-0.601,1.426-1.262,2.088-1.974h18.863c1.381,0,2.5-1.119,2.5-2.5c0-22.858-5.219-39.24-15.513-48.691
		c-4.061-3.729-8.263-5.739-11.814-6.83l-15.255-43.736C193.522,94.731,197.918,92.148,204.023,90.564z M220.623,236.619
		c-0.456,0.404-0.748,0.96-0.823,1.565l-1.608,13.036h-42.398l-1.608-13.036c-0.075-0.604-0.367-1.161-0.823-1.565l-14.13-12.523
		c0.208-0.623,0.515-1.426,0.936-2.322c0.067-0.116,0.128-0.235,0.176-0.362c1.772-3.605,5.412-8.542,12.465-10.146
		c0.09-0.02,10.273-3.549,10.273-3.549c0.523,5.016,2.911,12.291,13.911,12.291c10.989,0,13.384-7.262,13.91-12.292
		c0,0,10.185,3.53,10.274,3.55c9.096,2.069,12.529,9.692,13.576,12.83L220.623,236.619z M222.707,255.453l12.813,36.896
		l-0.062,1.208c-5.469-16.272-11.868-27.826-13.642-30.884L222.707,255.453z M217.574,256.22l-0.554,4.49h-40.057l-0.554-4.49
		H217.574z M166.189,270.104l5.088-14.651l0.891,7.219c-0.94,1.621-3.184,5.637-5.896,11.467v-3.43
		C166.272,270.5,166.238,270.299,166.189,270.104z M154.74,226.796l0.147,0.129h-21.071v-3.901h20.514
		c-0.241,0.773-0.355,1.279-0.376,1.382C153.767,225.287,154.068,226.199,154.74,226.796z M147.163,309.647
		c-0.031,0.09-0.058,0.182-0.078,0.275c-0.184,0.821-0.677,1.522-1.388,1.974c-0.712,0.452-1.556,0.598-2.379,0.414
		c-0.821-0.184-1.522-0.676-1.974-1.387c-0.451-0.711-0.599-1.555-0.425-2.334l18.701-77.265c0.039-0.033,0.082-0.062,0.119-0.098
		l9.598,8.507l0.559,4.531c-0.035,0.076-0.076,0.146-0.105,0.227L147.163,309.647z M179.853,151.911
		c8.008-7.422,17.107-6.847,17.193-6.848c0.054-0.001,8.915-0.654,16.988,6.758c8.856,8.131,13.518,22.424,13.872,42.508H215.16
		c2.989-5.375,4.672-12.408,4.672-20.595c0-1.441-0.041-2.849-0.122-4.184c-0.08-1.327-1.183-2.341-2.495-2.339v-0.009H203.53
		l-4.307-8.521c-0.623-1.233-2.124-1.726-3.359-1.104c-0.495,0.25-0.864,0.647-1.097,1.107l-0.007-0.003l-4.307,8.521H176.77v0.01
		c-1.336,0.003-2.415,1.011-2.495,2.338c-0.081,1.335-0.122,2.743-0.122,4.184c0,8.187,1.683,15.22,4.672,20.595h-12.746
		C166.078,166.936,176.879,154.667,179.853,151.911z M166.272,163.784v-4.585l1.015,2.161
		C166.932,162.146,166.596,162.958,166.272,163.784z M196.992,200.746c-7.713,0-11.537-5.609-11.702-5.76
		c-4.182-5.202-6.138-13.248-6.138-21.252c0-0.519,0.011-1.026,0.021-1.532h12.818c0.943,0,1.806-0.531,2.231-1.373l2.769-5.479
		l2.768,5.479c0.426,0.842,1.288,1.373,2.232,1.373h12.818c0.011,0.506,0.021,1.014,0.021,1.532c0,8.004-1.956,16.05-6.138,21.252
		C208.529,195.137,204.705,200.746,196.992,200.746z M206.012,206.005c-0.214,4.772-1.572,9.002-9.02,9.002
		c-7.437,0-8.802-4.217-9.02-9.002c0.746-0.313,1.283-0.96,1.463-1.732c2.319,0.96,4.848,1.474,7.557,1.474s5.237-0.513,7.557-1.474
		C204.729,205.045,205.267,205.692,206.012,206.005z M184.508,201.303v0.626l-12.947,4.494c-1.97,0.459-3.721,1.126-5.289,1.926
		v-9.019h16.148C183.082,200.041,183.777,200.702,184.508,201.303z M185.849,102.818c0.007-0.008,0.016-0.013,0.022-0.021
		c0.136-0.16,0.24-0.335,0.328-0.514c0.105-0.154,0.221-0.309,0.331-0.464l13.354,38.335c-1.443-0.134-2.467-0.106-2.895-0.084
		c-1.602-0.084-11.384-0.229-20.42,8.068c-0.587,0.539-1.151,1.106-1.705,1.689c0,0,7.338-37.437,7.346-37.518
		C182.243,111.965,182.726,107.648,185.849,102.818z M180.689,101.681c-2.744,4.9-3.345,9.132-3.443,10.03l-8.176,41.685
		l-2.651-5.645l12.419-47.64L180.689,101.681z M151.419,106.106c0.514,0,1.023-0.159,1.454-0.467
		c0.694-0.497,1.087-1.312,1.042-2.165l-0.911-17.271c0,0,9.02,4.321,9.177,4.361c5.982,1.552,9.434,3.15,12.45,5.859l-13.278,50.94
		c-0.008,0.029-0.081,0.596-0.081,0.63v63.847c-2.135,1.982-3.686,4.183-4.793,6.184h-28.166v-8.026l10.464-13.177
		c0.389-0.49,0.58-1.107,0.536-1.73l-5.984-84.851l4.767-9.288l12.394,4.974C150.788,106.047,151.105,106.106,151.419,106.106z
		 M119.36,98.64h12.975l1.1,0.442l-4.176,8.137h-6.882l-4.14-8.068L119.36,98.64z M113.327,79.959v-3.99
		c3.456,1.85,7.584,2.73,12.483,2.732h0.002c0.002,0,0.003,0,0.004,0c0.002,0,0.004,0,0.004,0c0.002,0,0.002,0,0.002,0
		c4.9-0.002,9.027-0.882,12.484-2.732v3.99l-7.018,13.682h-10.944L113.327,79.959z M123.179,112.219h5.276l5.801,82.254
		l-8.439,10.627l-8.438-10.627L123.179,112.219z M128.816,223.024v3.901h-5.997v-3.901H128.816z M147.867,83.732l0.849,16.095
		l-12.424-4.986l6.739-13.138c0.041-0.08,0.062-0.168,0.094-0.252L147.867,83.732z M146.9,46.108c0,2.248-2.061,4.076-4.594,4.076
		h-5.277c-2.532,0-4.593-1.828-4.593-4.076v-3.123H146.9V46.108z M107.75,37.984c-0.513-7.008,0.224-13.989,1.062-15.197
		c0.107-0.107,0.187-0.172,0.237-0.209c0.349,0.09,1.114,0.504,1.741,0.843c2.599,1.405,6.947,3.755,15.021,3.757
		c0,0,0.001,0,0.002,0c0.002,0,0.003,0,0.004,0c0.002,0,0.004,0,0.004,0c0.002,0,0.002,0,0.002,0
		c8.075-0.002,12.424-2.352,15.022-3.757c0.628-0.339,1.396-0.755,1.743-0.844c0.043,0.029,0.103,0.074,0.171,0.139
		c0.896,1.274,1.638,8.26,1.126,15.268H107.75z M102.234,37.984c-1.381,0-2.5,1.119-2.5,2.5v4.713
		c-1.673-3.541-2.995-10.499-0.829-24.027c1.331-8.315,2.588-16.169,26.912-16.17c24.325,0.001,25.583,7.855,26.914,16.17
		c2.166,13.53,0.843,20.488-0.83,24.028v-4.714c0-1.381-1.119-2.5-2.5-2.5h-0.513c0.386-6.177,0.192-16.01-2.53-18.732
		c-2.919-2.92-5.675-1.427-7.891-0.23c-2.463,1.331-5.837,3.155-12.65,3.156c-6.812-0.001-10.186-1.825-12.649-3.156
		c-2.215-1.197-4.974-2.687-7.891,0.23c-2.722,2.722-2.915,12.556-2.53,18.732H102.234z M104.734,42.984h14.464v3.123
		c0,2.248-2.061,4.076-4.593,4.076h-5.277c-2.533,0-4.594-1.828-4.594-4.076V42.984z M105.435,54.396
		c1.191,0.503,2.507,0.788,3.893,0.788h5.277c5.289,0,9.593-4.071,9.593-9.076v-3.123h3.239v3.123c0,5.004,4.304,9.076,9.593,9.076
		h5.277c1.387,0,2.701-0.285,3.893-0.788c-3.649,15.902-10.826,19.304-20.383,19.305C116.26,73.699,109.084,70.298,105.435,54.396z
		 M103.719,83.756l4.791-2.305c0.031,0.084,0.052,0.172,0.093,0.252l6.795,13.248l-12.535,5.71L103.719,83.756z M59.729,244.442
		c-0.015,0.068-0.645,3.326-2.631,4.717c-1.488,1.042-3.225,1.589-5.025,1.355c-1.801-0.234-3.402-1.156-4.511-2.595
		c-1.107-1.439-1.589-3.224-1.355-5.02l0.757-5.735h14.338L59.729,244.442z M62.935,232.164h-15.87l-0.689-7.949H67.4
		L62.935,232.164z M69.617,219.215H46.687c0,0,20.946-106.825,20.954-106.906c0.035-0.368,0.584-5.271,4.321-10.49l13.316,38.231
		L69.617,219.215z M75.777,97.572c3.176-2.842,7.572-5.425,13.677-7.008c0.157-0.041,9.132-4.34,9.132-4.34l-0.926,18.29
		c-0.044,0.872,0.37,1.704,1.092,2.194c0.421,0.287,0.912,0.433,1.405,0.433c0.353,0,0.706-0.074,1.036-0.225l12.488-5.689
		l4.624,9.013l-5.983,84.852c-0.044,0.624,0.147,1.241,0.536,1.73l10.454,13.166v8.037h-32.95v-78.157
		c0-0.055-0.122-0.773-0.139-0.822L75.777,97.572z M117.818,223.024v3.901H90.362v-3.901H117.818z M114.326,434.801H81.904
		c0.227-2.55,1.001-6.617,3.565-9.334c1.903-2.017,4.474-2.997,7.856-2.997h21V434.801z M128.309,256.193h-0.004
		c-0.068-1.256-1.061-2.288-2.346-2.359c-1.399-0.091-2.558,0.98-2.634,2.359l-8.865,161.277H90.362V231.925h63.97l-18.281,75.53
		c-0.476,2.125-0.095,4.309,1.072,6.148c1.167,1.839,2.98,3.113,5.104,3.587c0.598,0.133,1.198,0.199,1.796,0.199
		c1.529,0,3.03-0.433,4.353-1.272c1.795-1.139,3.052-2.894,3.553-4.953l9.343-26.901v1.671
		c-5.639,14.651-11.258,34.661-11.258,56.272c0,1.381,1.119,2.5,2.5,2.5h8.758v72.764h-24.097L128.309,256.193z M164.5,434.801
		h-27.191v-12.33h21c4.711,0,7.926,1.94,9.799,5.905C166.37,430.437,165.195,432.782,164.5,434.801z M166.272,419.358v-74.651h1.133
		c0.355,29.041,6.816,68.281,8.628,78.744c-1.501,0.317-2.841,0.874-4.042,1.587C170.561,422.547,168.63,420.636,166.272,419.358z
		 M172.404,344.707h16.619l0.021,78.442h-7.989C179.416,413.75,172.768,373.93,172.404,344.707z M169.895,434.801
		c0.606-1.31,1.514-2.821,2.805-4.073c0.014-0.013,0.026-0.026,0.04-0.039c1.505-1.444,3.527-2.534,6.226-2.54h10.08l0.002,6.651
		H169.895z M199.938,434.801h-5.293c0.746-2.69,2.298-6.72,5.295-9.427L199.938,434.801z M199.941,419.315
		c-2.474,1.296-4.402,3.141-5.896,5.159l-0.021-79.767h5.938L199.941,419.315z M204.938,434.801l0.002-6.651h10.08
		c5.055,0.011,7.758,3.813,9.071,6.651H204.938z M204.941,423.149l0.02-78.442h16.619c-0.363,29.223-7.012,69.043-8.65,78.442
		H204.941z M228.895,433.284c-1.738-3.996-5.21-8.624-10.942-9.833c0.052-0.3,0.109-0.633,0.169-0.98h10.773V433.284z
		 M229.022,417.471h-10.066c2.496-15.265,7.318-47.78,7.624-72.764h6.221L229.022,417.471z M155.04,339.707
		c0.76-35.84,17.538-67.556,21.159-73.997h41.586c3.621,6.441,20.4,38.157,21.159,73.997H155.04z M239.703,308.234l0.174-3.343
		l0.047,0.134l0.274,5.292C240.038,309.617,239.871,308.926,239.703,308.234z M240.397,291.148c-0.002-0.005-0.004-0.01-0.005-0.015
		l-16.199-46.642c-0.028-0.08-0.069-0.151-0.105-0.227l0.559-4.531l9.676-8.576l18.733,77.389c0.184,0.821,0.036,1.665-0.415,2.376
		c-0.451,0.712-1.152,1.204-1.975,1.387c-0.82,0.184-1.666,0.037-2.378-0.414c-0.711-0.451-1.204-1.152-1.388-1.974
		c-0.021-0.093-0.047-0.185-0.078-0.275L240.397,291.148z M245.504,316.044c0.035,0.023,0.068,0.051,0.105,0.074
		c1.322,0.839,2.823,1.272,4.352,1.272c0.597,0,1.198-0.066,1.795-0.199c2.125-0.475,3.938-1.748,5.105-3.587
		c1.167-1.839,1.548-4.022,1.062-6.19l-16.353-67.566h33.291v177.623h-24.09L245.504,316.044z M283.327,434.801h-32.429v-12.33h21
		c3.374,0,5.94,0.975,7.841,2.98C282.333,428.186,283.105,432.252,283.327,434.801z M278.188,176.083
		c-13.734-12.641-2.248-47.979-2.238-48.012c0.013-0.046,5.409-18.487,21.118-21.961l1.986-0.477
		c1.698,8.677,10.57,14.51,23.373,15.178v4.244c-1.552,1.755-3.07,3.699-4.532,5.871c-0.064,0.095-0.109,0.197-0.159,0.297
		c-1.109,1.108-2.206,2.421-3.232,4.004c-1.404,2.166-7.999,7.458-16.662,11.614c-0.017,0.006-0.034,0.007-0.052,0.013
		c-0.176,0.063-0.338,0.146-0.489,0.242c-1.333,0.626-2.713,1.222-4.129,1.776c-1.599-4.023-2.895-12.079,1.372-15.653
		c1.059-0.886,1.197-2.463,0.312-3.521c-0.887-1.059-2.463-1.198-3.523-0.312c-6.425,5.381-5.072,15.487-2.889,21.118
		c-2.609,0.778-5.291,1.374-7.985,1.696c-1.371,0.164-2.35,1.408-2.186,2.779c0.165,1.37,1.403,2.348,2.779,2.186
		c3.948-0.472,7.855-1.459,11.576-2.756c0.042-0.012,0.081-0.03,0.123-0.044c1.518-0.532,3.004-1.114,4.449-1.736l4.48,12.525
		C290.379,172.396,281.282,175.253,278.188,176.083z M322.427,434.801h-18.729c5.083-5.308,7.073-11.433,7.815-14.648h10.915
		V434.801z M322.427,415.152h-10.905c-9.762-53.662-11.221-91.97-11.438-101.833h22.343V415.152z M346.156,434.801h-18.73v-14.648
		h10.915C339.083,423.368,341.073,429.493,346.156,434.801z M338.332,415.152h-10.905V313.32h22.343
		C349.554,323.179,348.1,361.459,338.332,415.152z M358.895,199.58c8.807,38.349,2.535,96.804,1.108,108.74h-70.152
		c-1.429-11.939-7.7-70.383,1.108-108.74c2.62,2.107,6.112,2.767,7.703,3.062c6.092,1.128,14.994,1.128,26.265,1.128
		c11.271,0,20.173,0,26.265-1.128C352.782,202.347,356.275,201.688,358.895,199.58z M386.588,163.261
		c-2.393,2.448-13.324,12.343-32.491,11.366c-0.146-0.021-0.294-0.026-0.442-0.021l1.645-13.004
		c6.072-0.345,11.806-1.274,15.209-3.092c4.771-2.549,7.606-5.37,8.425-8.383c0.177-0.649,0.237-1.239,0.235-1.769
		c0.312-0.177,0.627-0.352,0.932-0.545c1.628-1.031,3.071-2.269,4.338-3.653C385.904,148.156,387.681,155.061,386.588,163.261z"/>
</g>
<g>
</g>
<g>
</g>
<g>
</g>
<g>
</g>
<g>
</g>
<g>
</g>
<g>
</g>
<g>
</g>
<g>
</g>
<g>
</g>
<g>
</g>
<g>
</g>
<g>
</g>
<g>
</g>
<g>
</g>
</svg>
