<?xml version="1.0" encoding="iso-8859-1"?>
<!-- Generator: Adobe Illustrator 19.0.0, SVG Export Plug-In . SVG Version: 6.00 Build 0)  -->
<svg version="1.1" id="Layer_1" xmlns="http://www.w3.org/2000/svg" xmlns:xlink="http://www.w3.org/1999/xlink" x="0px" y="0px"
	 viewBox="0 0 512 512" style="enable-background:new 0 0 512 512;" xml:space="preserve">
<g>
	<g>
		<g>
			<path d="M314.752,348.629l-58.773-14.677l-4.352-17.429c15.573-15.915,26.325-37.248,29.909-59.264
				c9.152-3.285,16.085-11.499,17.365-21.632l3.947-31.531c0.939-7.467-1.365-14.976-6.293-20.629
				c-2.432-2.795-5.397-5.013-8.683-6.549l1.323-26.667l5.184-5.205c9.579-10.176,17.536-27.563,1.152-52.565
				C283.157,73.579,262.293,64,233.472,64c-11.115,0-36.608,0-60.629,15.829c-69.248,1.728-78.229,35.968-78.229,65.792
				c0,6.784,1.493,20.992,2.624,30.784c-3.669,1.536-6.976,3.861-9.664,6.912c-5.035,5.675-7.36,13.248-6.421,20.779l3.947,31.531
				c1.344,10.837,9.173,19.477,19.264,22.229c3.563,21.099,13.76,41.685,28.373,57.237l-4.715,18.859l-58.773,14.677
				C28.459,358.805,0,395.285,0,437.333c0,2.837,1.109,5.568,3.115,7.552C5.12,446.869,7.851,448,10.667,448l362.667-0.043
				c5.888,0,10.667-4.779,10.667-10.667C384,395.285,355.541,358.805,314.752,348.629z M22.144,426.624
				c4.203-27.563,24.512-50.368,52.288-57.301l64.981-16.235c3.819-0.96,6.827-3.947,7.765-7.765l7.723-30.933
				c0.96-3.755-0.235-7.723-3.051-10.368c-15.424-14.464-25.643-35.691-27.328-56.747c-0.448-5.547-5.077-9.813-10.645-9.813h-2.56
				c-2.56,0-4.736-1.92-5.056-4.459l-3.947-31.531c-0.256-1.984,0.661-3.371,1.237-4.011c0.576-0.64,1.835-1.728,5.461-1.728
				c3.072,0,5.973-1.301,8-3.605c2.027-2.283,2.965-5.355,2.581-8.384c-1.003-8.021-3.648-30.528-3.648-38.08
				c0-19.584,0-43.925,60.395-44.523c2.176-0.021,4.331-0.704,6.101-1.984c16.981-12.139,35.328-13.781,51.051-13.781
				c21.163,0,36.032,6.336,44.203,18.837c9.344,14.272,5.824,21.291,1.365,26.027l-7.872,7.893
				c-1.877,1.877-2.987,4.373-3.115,7.019l-1.92,39.467c-0.128,2.901,0.917,5.717,2.901,7.829c1.963,2.112,4.736,3.328,7.637,3.349
				c2.005,0.021,3.243,1.109,3.797,1.749s1.451,1.984,1.216,3.947l-3.947,31.531c-0.32,2.539-2.496,4.459-5.824,4.459
				c-5.568,0-10.197,4.267-10.645,9.813c-1.728,21.717-12.416,43.349-28.629,57.877c-2.944,2.624-4.181,6.677-3.221,10.517
				l7.403,29.632c0.96,3.819,3.947,6.827,7.765,7.765l64.981,16.235c27.733,6.933,48.043,29.76,52.267,57.344L22.144,426.624z"/>
			<path d="M442.773,348.608L384,333.931l-2.389-9.429c40.235-7.211,61.12-19.349,62.059-19.904
				c3.008-1.771,4.885-4.971,5.141-8.448c0.256-3.477-1.301-6.933-4.011-9.131c-0.277-0.213-27.413-23.083-27.413-101.952
				c0-69.867-16.853-105.28-50.091-105.28h-3.563c-11.435-10.773-20.779-15.403-41.451-15.701h-0.149
				c-3.968,0-7.531,2.304-9.365,5.824c-1.856,3.563-1.493,8,0.853,11.264c2.389,3.371,6.357,4.885,10.112,4.267
				c15.253,0.427,19.093,3.52,28.117,12.544c2.005,1.984,4.715,3.115,7.552,3.115h7.893c18.283,0,28.757,30.613,28.757,83.947
				c0,59.52,14.208,91.264,24.811,106.645c-10.795,4.267-28.864,10.027-53.888,13.547c-2.987,0.405-5.675,2.091-7.36,4.587
				c-1.685,2.517-2.24,5.611-1.493,8.555l6.72,26.944c0.96,3.819,3.947,6.827,7.765,7.765l64.981,16.235
				c27.733,6.933,48.043,29.76,52.267,57.344H416V448l85.333-0.043c5.888,0,10.667-4.779,10.667-10.667
				C512,395.285,483.541,358.805,442.773,348.608z"/>
		</g>
	</g>
</g>
<g>
</g>
<g>
</g>
<g>
</g>
<g>
</g>
<g>
</g>
<g>
</g>
<g>
</g>
<g>
</g>
<g>
</g>
<g>
</g>
<g>
</g>
<g>
</g>
<g>
</g>
<g>
</g>
<g>
</g>
</svg>
